<?xml version="1.0" encoding="UTF-8" standalone="no"?>
<svg
   xmlns:dc="http://purl.org/dc/elements/1.1/"
   xmlns:cc="http://creativecommons.org/ns#"
   xmlns:rdf="http://www.w3.org/1999/02/22-rdf-syntax-ns#"
   xmlns:svg="http://www.w3.org/2000/svg"
   xmlns="http://www.w3.org/2000/svg"
   viewBox="0 0 80 80"
   height="80"
   width="80"
   xml:space="preserve"
   id="svg2"
   version="1.1"><metadata
     id="metadata8"><rdf:RDF><cc:Work
         rdf:about=""><dc:format>image/svg+xml</dc:format><dc:type
           rdf:resource="http://purl.org/dc/dcmitype/StillImage" /></cc:Work></rdf:RDF></metadata><defs
     id="defs6" /><g
     transform="matrix(1.3333333,0,0,-1.3333333,0,80)"
     id="g10"><g
       transform="scale(0.1)"
       id="g12"><path
         id="path14"
         style="fill:#ffffff;fill-opacity:1;fill-rule:nonzero;stroke:none"
         d="M 600,0 H 0 V 600 H 600 V 0" /><path
         id="path16"
         style="fill:#414042;fill-opacity:1;fill-rule:nonzero;stroke:none"
         d="m 455,310 c -120.898,0.004 -230.051,-50.504 -307.426,-131.547 -1.906,-1.996 -1.836,-5.16 0.164,-7.07 1.996,-1.906 5.16,-1.832 7.071,0.164 C 230.395,250.699 336.914,299.996 455,300 c 2.762,0 5,2.238 5,5 0,2.762 -2.238,5 -5,5" /><path
         id="path18"
         style="fill:#414042;fill-opacity:1;fill-rule:nonzero;stroke:none"
         d="m 455,290 c -108.086,0.004 -206.328,-42.363 -278.941,-111.375 -2.004,-1.902 -2.082,-5.066 -0.18,-7.066 1.902,-2.004 5.066,-2.082 7.066,-0.18 C 253.797,238.699 349.551,279.996 455,280 c 2.762,0 5,2.238 5,5 0,2.762 -2.238,5 -5,5" /><path
         id="path20"
         style="fill:#414042;fill-opacity:1;fill-rule:nonzero;stroke:none"
         d="m 455,270 c -94.84,0.004 -181.715,-34.312 -248.805,-91.184 -2.105,-1.785 -2.367,-4.941 -0.582,-7.046 1.789,-2.11 4.942,-2.368 7.047,-0.582 65.375,55.406 149.93,88.808 242.34,88.812 2.762,0 5,2.238 5,5 0,2.762 -2.238,5 -5,5" /><path
         id="path22"
         style="fill:#414042;fill-opacity:1;fill-rule:nonzero;stroke:none"
         d="m 455,250 c -80.945,0.004 -155.785,-26.367 -216.309,-70.973 -2.222,-1.636 -2.699,-4.769 -1.058,-6.992 1.637,-2.222 4.765,-2.695 6.988,-1.058 58.887,43.386 131.613,69.019 210.379,69.023 2.762,0 5,2.238 5,5 0,2.762 -2.238,5 -5,5" /><path
         id="path24"
         style="fill:#414042;fill-opacity:1;fill-rule:nonzero;stroke:none"
         d="m 455,230 c -66.02,0 -127.75,-18.559 -180.187,-50.738 -2.356,-1.446 -3.094,-4.524 -1.649,-6.875 1.445,-2.356 4.524,-3.094 6.879,-1.649 50.926,31.246 110.816,49.258 174.957,49.262 2.762,0 5,2.238 5,5 0,2.762 -2.238,5 -5,5" /><path
         id="path26"
         style="fill:#414042;fill-opacity:1;fill-rule:nonzero;stroke:none"
         d="m 455,210 c -49.156,0 -95.793,-10.922 -137.574,-30.469 -2.5,-1.172 -3.578,-4.148 -2.41,-6.648 1.172,-2.5 4.148,-3.582 6.648,-2.41 40.492,18.945 85.66,29.523 133.336,29.527 2.762,0 5,2.238 5,5 0,2.762 -2.238,5 -5,5" /><path
         id="path28"
         style="fill:#414042;fill-opacity:1;fill-rule:nonzero;stroke:none"
         d="m 455,190 c -27.082,0 -53.352,-3.531 -78.359,-10.16 -2.668,-0.707 -4.258,-3.445 -3.551,-6.117 0.707,-2.668 3.445,-4.258 6.113,-3.551 24.184,6.41 49.586,9.828 75.797,9.828 2.762,0 5,2.238 5,5 0,2.762 -2.238,5 -5,5" /><path
         id="path30"
         style="fill:#414042;fill-opacity:1;fill-rule:nonzero;stroke:none"
         d="m 145,300 c 54.117,0 105.797,-10.355 153.188,-29.187 2.566,-1.02 5.472,0.234 6.492,2.8 1.019,2.567 -0.235,5.473 -2.797,6.492 C 253.34,299.395 200.395,310 145,310 c -2.762,0 -5,-2.238 -5,-5 0,-2.762 2.238,-5 5,-5" /><path
         id="path32"
         style="fill:#414042;fill-opacity:1;fill-rule:nonzero;stroke:none"
         d="m 145,280 c 44.441,0 87.148,-7.336 127,-20.859 2.617,-0.887 5.453,0.511 6.344,3.129 0.886,2.613 -0.516,5.453 -3.129,6.339 C 234.344,282.48 190.539,290 145,290 c -2.762,0 -5,-2.238 -5,-5 0,-2.762 2.238,-5 5,-5" /><path
         id="path34"
         style="fill:#414042;fill-opacity:1;fill-rule:nonzero;stroke:none"
         d="m 145,260 c 35.391,0 69.621,-4.902 102.066,-14.059 2.661,-0.75 5.422,0.797 6.172,3.457 0.75,2.657 -0.797,5.418 -3.453,6.168 C 216.465,264.969 181.313,270 145,270 c -2.762,0 -5,-2.238 -5,-5 0,-2.762 2.238,-5 5,-5" /><path
         id="path36"
         style="fill:#414042;fill-opacity:1;fill-rule:nonzero;stroke:none"
         d="m 145,240 c 26.961,0 53.215,-3.004 78.445,-8.695 2.692,-0.61 5.371,1.082 5.977,3.777 0.609,2.691 -1.082,5.371 -3.777,5.977 C 199.699,246.91 172.703,250 145,250 c -2.762,0 -5,-2.238 -5,-5 0,-2.762 2.238,-5 5,-5" /><path
         id="path38"
         style="fill:#414042;fill-opacity:1;fill-rule:nonzero;stroke:none"
         d="m 145,220 c 19.133,0 37.883,-1.605 56.133,-4.684 2.722,-0.457 5.301,1.379 5.762,4.102 0.457,2.723 -1.379,5.301 -4.102,5.762 C 184,228.348 164.691,230 145,230 c -2.762,0 -5,-2.238 -5,-5 0,-2.762 2.238,-5 5,-5" /><path
         id="path40"
         style="fill:#414042;fill-opacity:1;fill-rule:nonzero;stroke:none"
         d="m 145,200 c 11.871,0 23.586,-0.656 35.113,-1.934 2.746,-0.304 5.219,1.672 5.524,4.418 0.301,2.743 -1.676,5.215 -4.418,5.52 C 169.324,209.324 157.238,210 145,210 c -2.762,0 -5,-2.238 -5,-5 0,-2.762 2.238,-5 5,-5" /><path
         id="path42"
         style="fill:#414042;fill-opacity:1;fill-rule:nonzero;stroke:none"
         d="m 145,180 c 5.164,0 10.297,-0.133 15.395,-0.395 2.757,-0.14 5.109,1.981 5.25,4.735 0.14,2.758 -1.977,5.109 -4.735,5.25 -5.269,0.273 -10.574,0.41 -15.91,0.41 -2.762,0 -5,-2.238 -5,-5 0,-2.762 2.238,-5 5,-5" /><path
         id="path44"
         style="fill:#414042;fill-opacity:1;fill-rule:nonzero;stroke:none"
         d="M 310,277.422 V 330 h 5 c 1.316,0 2.605,0.531 3.535,1.465 l 20,20 c 1.43,1.43 1.86,3.582 1.082,5.449 C 338.848,358.781 337.023,360 335,360 h -80 c -2.023,0 -3.848,-1.219 -4.617,-3.086 -0.778,-1.867 -0.348,-4.019 1.082,-5.449 l 20,-20 C 272.395,330.531 273.684,330 275,330 h 5 v -48.902 c 0,-2.758 2.238,-5 5,-5 2.762,0 5,2.242 5,5 V 335 c 0,1.316 -0.531,2.605 -1.465,3.535 -0.93,0.93 -2.219,1.465 -3.535,1.465 h -7.93 l -10,10 h 55.86 l -10,-10 H 305 c -1.316,0 -2.605,-0.535 -3.535,-1.465 C 300.531,337.605 300,336.316 300,335 v -57.578 c 0,-2.762 2.238,-5 5,-5 2.762,0 5,2.238 5,5" /><path
         id="path46"
         style="fill:#414042;fill-opacity:1;fill-rule:nonzero;stroke:none"
         d="m 375,365 h -5 c -0.004,-2.762 -2.242,-4.996 -5,-5 -2.758,0.004 -4.996,2.238 -5,5 l 0.223,1.027 c 0.66,2.328 2.929,6.653 4.996,10.043 1.031,1.719 2.015,3.254 2.734,4.356 0.723,1.097 1.16,1.73 1.16,1.73 L 365,385 l -4.113,-2.844 c 0,0 0.578,-0.836 1.48,-2.226 1.36,-2.086 3.403,-5.371 5.039,-8.496 0.821,-1.559 1.532,-3.079 1.992,-4.305 L 369.895,365.59 370,365 h 5 5 c -0.066,2.82 -0.953,5.012 -1.984,7.465 -3.153,7.113 -8.825,15.238 -8.903,15.375 -0.929,1.348 -2.476,2.16 -4.113,2.16 -1.637,0 -3.184,-0.812 -4.113,-2.16 -0.043,-0.063 -2.598,-3.754 -5.211,-8.262 -1.309,-2.258 -2.633,-4.711 -3.692,-7.113 -1.031,-2.453 -1.921,-4.645 -1.984,-7.465 0.004,-8.285 6.715,-14.996 15,-15 8.285,0.004 14.996,6.715 15,15 h -5" /><path
         id="path48"
         style="fill:#414042;fill-opacity:1;fill-rule:nonzero;stroke:none"
         d="m 435,335 h -5 c -0.004,-2.762 -2.242,-4.996 -5,-5 -2.758,0.004 -4.996,2.238 -5,5 l 0.223,1.027 c 0.66,2.328 2.929,6.653 4.996,10.043 1.031,1.719 2.015,3.254 2.734,4.356 0.723,1.097 1.16,1.73 1.16,1.73 L 425,355 l -4.113,-2.844 c 0,0 0.578,-0.836 1.48,-2.226 1.36,-2.086 3.403,-5.371 5.039,-8.496 0.821,-1.559 1.532,-3.079 1.992,-4.305 L 429.895,335.59 430,335 h 5 5 c -0.066,2.82 -0.953,5.012 -1.984,7.465 -3.153,7.113 -8.825,15.238 -8.903,15.375 -0.929,1.348 -2.476,2.16 -4.113,2.16 -1.637,0 -3.184,-0.812 -4.113,-2.16 -0.043,-0.063 -2.598,-3.754 -5.211,-8.262 -1.309,-2.258 -2.633,-4.711 -3.692,-7.113 -1.031,-2.453 -1.921,-4.645 -1.984,-7.465 0.004,-8.285 6.715,-14.996 15,-15 8.285,0.004 14.996,6.715 15,15 h -5" /><path
         id="path50"
         style="fill:#414042;fill-opacity:1;fill-rule:nonzero;stroke:none"
         d="m 205,345 h -5 c -0.004,-2.762 -2.242,-4.996 -5,-5 -2.758,0.004 -4.996,2.238 -5,5 l 0.223,1.027 c 0.66,2.328 2.929,6.653 4.996,10.043 1.031,1.719 2.015,3.254 2.734,4.356 0.723,1.097 1.16,1.73 1.16,1.73 L 195,365 l -4.113,-2.844 c 0,0 0.578,-0.836 1.48,-2.226 1.36,-2.086 3.403,-5.371 5.039,-8.496 0.821,-1.559 1.532,-3.079 1.992,-4.305 L 199.895,345.59 200,345 h 5 5 c -0.066,2.82 -0.953,5.012 -1.984,7.465 -3.153,7.113 -8.825,15.238 -8.903,15.375 -0.929,1.348 -2.476,2.16 -4.113,2.16 -1.637,0 -3.184,-0.812 -4.113,-2.16 -0.043,-0.063 -2.598,-3.754 -5.211,-8.262 -1.309,-2.258 -2.633,-4.711 -3.692,-7.113 -1.031,-2.453 -1.921,-4.645 -1.984,-7.465 0.004,-8.285 6.715,-14.996 15,-15 8.285,0.004 14.996,6.715 15,15 h -5" /><path
         id="path52"
         style="fill:#414042;fill-opacity:1;fill-rule:nonzero;stroke:none"
         d="m 245,385 h -5 c -0.004,-2.762 -2.242,-4.996 -5,-5 -2.758,0.004 -4.996,2.238 -5,5 l 0.223,1.027 c 0.66,2.328 2.929,6.653 4.996,10.043 1.031,1.719 2.015,3.254 2.734,4.356 0.723,1.097 1.16,1.73 1.16,1.73 L 235,405 l -4.113,-2.844 c 0,0 0.578,-0.836 1.48,-2.226 1.36,-2.086 3.403,-5.371 5.039,-8.496 0.821,-1.559 1.532,-3.079 1.992,-4.305 L 239.895,385.59 240,385 h 5 5 c -0.066,2.82 -0.953,5.012 -1.984,7.465 -3.153,7.113 -8.825,15.238 -8.903,15.375 -0.929,1.348 -2.476,2.16 -4.113,2.16 -1.637,0 -3.184,-0.812 -4.113,-2.16 -0.043,-0.063 -2.598,-3.754 -5.211,-8.262 -1.309,-2.258 -2.633,-4.711 -3.692,-7.113 -1.031,-2.453 -1.921,-4.645 -1.984,-7.465 0.004,-8.285 6.715,-14.996 15,-15 8.285,0.004 14.996,6.715 15,15 h -5" /><path
         id="path54"
         style="fill:#414042;fill-opacity:1;fill-rule:nonzero;stroke:none"
         d="m 375,430 h 10 c 2.762,0 5,2.238 5,5 0,2.762 -2.238,5 -5,5 h -10 c -2.762,0 -5,-2.238 -5,-5 0,-2.762 2.238,-5 5,-5" /><path
         id="path56"
         style="fill:#414042;fill-opacity:1;fill-rule:nonzero;stroke:none"
         d="m 346.301,424.289 9.238,3.828 c 2.551,1.059 3.762,3.981 2.703,6.531 -1.054,2.551 -3.98,3.766 -6.531,2.707 l -9.238,-3.828 c -2.551,-1.054 -3.762,-3.98 -2.707,-6.531 1.058,-2.551 3.98,-3.762 6.535,-2.707" /><path
         id="path58"
         style="fill:#414042;fill-opacity:1;fill-rule:nonzero;stroke:none"
         d="m 321.969,408.031 7.07,7.074 c 1.953,1.95 1.953,5.118 0,7.071 -1.953,1.953 -5.117,1.953 -7.07,0 l -7.074,-7.074 c -1.954,-1.95 -1.954,-5.118 0,-7.071 1.953,-1.953 5.121,-1.953 7.074,0" /><path
         id="path60"
         style="fill:#414042;fill-opacity:1;fill-rule:nonzero;stroke:none"
         d="m 305.711,383.699 3.824,9.242 c 1.059,2.551 -0.152,5.477 -2.707,6.532 -2.551,1.054 -5.473,-0.157 -6.531,-2.707 l -3.828,-9.239 c -1.055,-2.55 0.156,-5.476 2.707,-6.531 2.551,-1.058 5.476,0.152 6.535,2.703" /><path
         id="path62"
         style="fill:#414042;fill-opacity:1;fill-rule:nonzero;stroke:none"
         d="m 300,355 v 10 c 0,2.762 -2.238,5 -5,5 -2.762,0 -5,-2.238 -5,-5 v -10 c 0,-2.762 2.238,-5 5,-5 2.762,0 5,2.238 5,5" /><path
         id="path64"
         style="fill:#414042;fill-opacity:1;fill-rule:nonzero;stroke:none"
         d="m 450,355 v -10 c 0,-2.762 2.238,-5 5,-5 2.762,0 5,2.238 5,5 v 10 c 0,2.762 -2.238,5 -5,5 -2.762,0 -5,-2.238 -5,-5" /><path
         id="path66"
         style="fill:#414042;fill-opacity:1;fill-rule:nonzero;stroke:none"
         d="m 444.293,383.699 3.824,-9.238 c 1.059,-2.551 3.981,-3.762 6.535,-2.703 2.551,1.055 3.762,3.98 2.703,6.531 l -3.824,9.238 c -1.058,2.551 -3.984,3.762 -6.535,2.707 -2.551,-1.058 -3.762,-3.98 -2.703,-6.535" /><path
         id="path68"
         style="fill:#414042;fill-opacity:1;fill-rule:nonzero;stroke:none"
         d="m 428.031,408.031 7.074,-7.07 c 1.954,-1.953 5.118,-1.953 7.071,0 1.953,1.953 1.953,5.117 0,7.07 l -7.071,7.071 c -1.953,1.953 -5.121,1.953 -7.074,0 -1.953,-1.95 -1.953,-5.118 0,-7.071" /><path
         id="path70"
         style="fill:#414042;fill-opacity:1;fill-rule:nonzero;stroke:none"
         d="m 403.699,424.289 9.242,-3.824 c 2.551,-1.059 5.473,0.152 6.532,2.707 1.058,2.551 -0.157,5.473 -2.707,6.531 l -9.239,3.824 c -2.55,1.059 -5.476,-0.152 -6.531,-2.703 -1.058,-2.551 0.152,-5.476 2.703,-6.535" /><path
         id="path72"
         style="fill:#414042;fill-opacity:1;fill-rule:nonzero;stroke:none"
         d="m 215,440 h -10 c -2.762,0 -5,-2.238 -5,-5 0,-2.762 2.238,-5 5,-5 h 10 c 2.762,0 5,2.238 5,5 0,2.762 -2.238,5 -5,5" /><path
         id="path74"
         style="fill:#414042;fill-opacity:1;fill-rule:nonzero;stroke:none"
         d="m 247.527,433.527 -9.238,3.828 c -2.551,1.059 -5.476,-0.156 -6.531,-2.707 -1.059,-2.55 0.152,-5.472 2.703,-6.531 l 9.238,-3.828 c 2.555,-1.055 5.477,0.156 6.535,2.707 1.059,2.551 -0.156,5.477 -2.707,6.531" /><path
         id="path76"
         style="fill:#414042;fill-opacity:1;fill-rule:nonzero;stroke:none"
         d="m 275.105,415.102 -7.074,7.074 c -1.953,1.953 -5.117,1.953 -7.07,0 -1.953,-1.953 -1.953,-5.121 0,-7.071 l 7.07,-7.074 c 1.953,-1.953 5.121,-1.953 7.074,0 1.954,1.953 1.954,5.121 0,7.071" /><path
         id="path78"
         style="fill:#414042;fill-opacity:1;fill-rule:nonzero;stroke:none"
         d="m 293.531,387.527 -3.828,9.239 c -1.058,2.55 -3.98,3.761 -6.531,2.707 -2.555,-1.055 -3.766,-3.981 -2.707,-6.532 l 3.828,-9.242 c 1.055,-2.551 3.98,-3.761 6.531,-2.703 2.551,1.055 3.762,3.981 2.707,6.531" /><path
         id="path80"
         style="fill:#414042;fill-opacity:1;fill-rule:nonzero;stroke:none"
         d="m 154.895,415.102 -7.071,-7.071 c -1.953,-1.953 -1.953,-5.117 0,-7.07 1.953,-1.953 5.117,-1.953 7.071,0 l 7.074,7.07 c 1.953,1.953 1.953,5.121 0,7.071 -1.953,1.953 -5.121,1.953 -7.074,0" /><path
         id="path82"
         style="fill:#414042;fill-opacity:1;fill-rule:nonzero;stroke:none"
         d="m 182.473,433.527 -9.239,-3.824 c -2.55,-1.058 -3.765,-3.98 -2.707,-6.531 1.059,-2.555 3.981,-3.766 6.532,-2.707 l 9.242,3.824 c 2.551,1.059 3.762,3.984 2.703,6.535 -1.055,2.551 -3.981,3.762 -6.531,2.703" /></g></g></svg>