<?xml version="1.0" encoding="UTF-8" standalone="no"?>
<svg
   xmlns:dc="http://purl.org/dc/elements/1.1/"
   xmlns:cc="http://creativecommons.org/ns#"
   xmlns:rdf="http://www.w3.org/1999/02/22-rdf-syntax-ns#"
   xmlns:svg="http://www.w3.org/2000/svg"
   xmlns="http://www.w3.org/2000/svg"
   viewBox="0 0 133.33333 133.33333"
   height="133.33333"
   width="133.33333"
   xml:space="preserve"
   id="svg2"
   version="1.1"><metadata
     id="metadata8"><rdf:RDF><cc:Work
         rdf:about=""><dc:format>image/svg+xml</dc:format><dc:type
           rdf:resource="http://purl.org/dc/dcmitype/StillImage" /></cc:Work></rdf:RDF></metadata><defs
     id="defs6" /><g
     transform="matrix(1.3333333,0,0,-1.3333333,0,133.33333)"
     id="g10"><g
       transform="scale(0.1)"
       id="g12"><path
         id="path14"
         style="fill:#231f20;fill-opacity:1;fill-rule:nonzero;stroke:none"
         d="m 765.742,317.164 c -16.418,16.902 -33.301,33.926 -49.609,50.387 -7.07,7.113 -14.121,14.246 -21.16,21.359 -6.274,6.27 -12.551,12.653 -18.84,19.016 -5.117,5.203 -10.254,10.41 -15.403,15.574 l -5.425,5.477 4.629,6.136 c 22.222,29.379 35.562,63.594 39.089,99.864 -11.75,3.988 -26.14,8.839 -41.242,13.89 0,-0.351 -0.015,-0.726 -0.039,-1.086 -4.207,-84.152 -74.297,-150.093 -159.558,-150.093 -2.11,0 -4.207,0.042 -6.336,0.128 -73.618,4.543 -132.903,59.563 -145.051,129.981 -1.504,8.687 -2.277,17.617 -2.277,26.699 0,22.492 4.757,43.899 13.312,63.262 24.375,55.176 79.617,93.773 143.723,93.773 56.961,0 107.996,-30.222 135.64,-77.863 10.598,-3.566 21.828,-7.336 32.95,-11.055 l 0.578,-0.175 c 6.582,-2.2 13.183,-4.415 19.519,-6.54 -26.211,80.856 -101.679,137 -188.687,137 -23.45,0 -46.36,-4.074 -68.098,-12.074 -47.078,-17.238 -84.844,-51.406 -107.336,-94.015 -12.82,-24.243 -20.691,-51.25 -22.558,-79.414 -0.282,-4.282 -0.418,-8.579 -0.418,-12.899 0,-97.25 69.558,-179.519 165.41,-195.633 l 13.601,-2.281 c 3.125,-0.266 6.321,-0.465 9.516,-0.598 8.238,-0.308 16.707,-0.089 25.039,0.664 l 3.25,0.29 c 27.434,2.55 53.586,10.613 77.644,23.996 l 6.625,3.679 4.676,-5.984 c 19.364,-24.859 38.887,-49.766 58.407,-74.676 11.476,-14.64 22.96,-29.289 34.386,-43.933 6.281,-8.11 14.278,-12.168 25.227,-12.809 0.879,-0.086 1.543,-0.109 2.234,-0.109 6.555,0 13.203,2.632 19.207,7.601 4.453,3.738 8.996,7.817 13.41,11.742 l 2.547,2.254 c 7.27,6.52 11.457,14.918 11.739,23.668 0.316,8.844 -3.368,17.637 -10.321,24.797" /><path
         id="path16"
         style="fill:#231f20;fill-opacity:1;fill-rule:nonzero;stroke:none"
         d="m 247.961,653.637 c -1.457,-0.309 -2.922,-0.461 -4.367,-0.461 -8.699,0 -15.684,5.933 -17.344,14.797 -1.973,10.394 3.879,19.101 14.23,21.144 1.344,0.285 2.696,0.418 4.024,0.418 8.687,0 15.469,-5.672 17.281,-14.422 2.094,-10.086 -3.855,-19.328 -13.824,-21.476 z m 14.141,46.133 c -7.356,4.742 -16.067,6.582 -24.243,5.078 -6.843,-1.262 -13.093,-4.719 -18.054,-10.039 -11.367,-12.211 -12.903,-29.161 -3.86,-42.211 8.11,-11.7 20.207,-16.731 34.121,-14.16 1.645,0.312 3.301,0.707 4.985,1.195 l 33.094,-29.567 c 2.902,11.106 6.718,21.985 11.367,32.575 l -23.008,20.328 c 3.789,15.601 -1.152,28.269 -14.402,36.801 z M 759.316,536.641 c -1.355,-0.246 -2.707,-0.379 -4.011,-0.379 -8.957,0 -15.774,5.961 -17.344,15.199 -1.777,10.281 4.402,19.039 14.727,20.809 1.218,0.218 2.441,0.332 3.64,0.332 8.86,0 15.664,-5.848 17.305,-14.868 1.902,-10.394 -3.992,-19.058 -14.317,-21.093 z m -203.742,69.086 c -1.043,-0.176 -2.129,-0.266 -3.172,-0.266 -8.867,0 -16.132,6.203 -17.656,15.109 -1.797,10.371 4.207,18.946 14.578,20.856 1.262,0.238 2.524,0.351 3.742,0.351 8.997,0 15.997,-6.179 17.461,-15.398 1.621,-10.234 -4.675,-18.922 -14.953,-20.652 z M 457.742,461.5 c -1.347,-0.266 -2.703,-0.395 -4.012,-0.395 -8.679,0 -15.46,5.668 -17.253,14.442 -1.067,5.055 -0.161,10.039 2.515,14.004 2.668,3.945 6.899,6.648 11.946,7.558 10.175,1.883 19.257,-4.632 21.074,-14.515 1.953,-10.367 -3.914,-19.055 -14.27,-21.094 z m 327.895,109.176 c -6.203,10.965 -16.926,17.504 -28.645,17.504 -1.972,0 -3.945,-0.18 -5.918,-0.535 -6.301,-1.153 -12.363,-4.098 -17.722,-8.598 l -8.872,3.082 c -12.5,4.297 -35.781,12.101 -60.449,20.344 -14.578,4.871 -29.351,9.836 -42.625,14.289 -14.07,4.742 -26.433,8.953 -35.011,11.945 -2.235,12.563 -11.922,23.598 -24.422,27.43 -5.188,1.574 -10.496,1.906 -15.578,0.972 -8.082,-1.484 -15.133,-5.937 -20.411,-12.871 -8.726,-11.523 -9.879,-24.863 -3.316,-36.316 -3.48,-5.074 -4.895,-7.512 -6.273,-9.887 -1.434,-2.476 -2.926,-5.047 -7,-10.965 l -17.481,-25.328 c -10.879,-15.773 -22.402,-32.504 -33.699,-48.699 -5.324,0.617 -10.461,0.043 -15.383,-1.711 l -73.914,67.715 c -1.516,-8.024 -2.246,-16.219 -2.246,-24.551 0,-5.824 0.379,-11.652 1.133,-17.391 l 53.843,-49.328 c -0.691,-3.808 -1.394,-8.109 -1.062,-12.605 0.996,-13.402 11.719,-25.262 26.055,-28.828 2.754,-0.684 5.515,-1.039 8.242,-1.039 1.902,0 3.84,0.175 5.691,0.531 8.274,1.508 15.473,6.227 20.813,13.629 8.222,11.41 9.172,24.191 2.746,35.515 10.613,15.333 21.211,30.668 31.824,46 l 7.285,10.547 c 6.406,9.266 9.988,14.895 13.477,20.344 3.301,5.184 6.445,10.102 11.855,17.969 10.059,-1.328 19.16,1.754 26.895,9.015 l 8.469,-2.921 c 10.984,-3.789 30.398,-10.305 51.687,-17.461 2.703,-0.883 5.43,-1.793 8.184,-2.727 30.222,-10.101 61.445,-20.558 78.234,-26.433 0.137,-0.684 0.27,-1.375 0.445,-2.04 2.817,-11.453 11.614,-21.183 23.11,-25.082 3.504,-1.175 7.117,-1.769 10.73,-1.769 h 0.02 c 1.906,0 3.828,0.176 5.695,0.508 7.598,1.418 14.285,5.425 19.383,11.633 9.57,11.585 11.152,25.835 4.211,38.113" /></g></g></svg>