<?xml version="1.0" encoding="UTF-8" standalone="no"?>
<svg
   xmlns:dc="http://purl.org/dc/elements/1.1/"
   xmlns:cc="http://creativecommons.org/ns#"
   xmlns:rdf="http://www.w3.org/1999/02/22-rdf-syntax-ns#"
   xmlns:svg="http://www.w3.org/2000/svg"
   xmlns="http://www.w3.org/2000/svg"
   viewBox="0 0 1600 1600"
   height="1600"
   width="1600"
   xml:space="preserve"
   id="svg2"
   version="1.1"><metadata
     id="metadata8"><rdf:RDF><cc:Work
         rdf:about=""><dc:format>image/svg+xml</dc:format><dc:type
           rdf:resource="http://purl.org/dc/dcmitype/StillImage" /></cc:Work></rdf:RDF></metadata><defs
     id="defs6" /><g
     transform="matrix(1.3333333,0,0,-1.3333333,0,1600)"
     id="g10"><g
       transform="scale(0.1)"
       id="g12"><path
         id="path14"
         style="fill:#ffffff;fill-opacity:1;fill-rule:nonzero;stroke:none"
         d="M 12000,0 H 0 V 12000 H 12000 V 0" /><path
         id="path16"
         style="fill:#100f0d;fill-opacity:1;fill-rule:nonzero;stroke:none"
         d="m 5489.45,5488.92 156.9,-156.91 -608.95,-452.05 -608.95,-452.04 452.03,608.95 452.04,608.96 156.93,-156.91" /><path
         id="path18"
         style="fill:none;stroke:#100f0d;stroke-width:10;stroke-linecap:butt;stroke-linejoin:miter;stroke-miterlimit:10;stroke-dasharray:none;stroke-opacity:1"
         d="m 5489.45,5488.92 156.9,-156.91 -608.95,-452.05 -608.95,-452.04 452.03,608.95 452.04,608.96 z" /><path
         id="path20"
         style="fill:#100f0d;fill-opacity:1;fill-rule:nonzero;stroke:none"
         d="m 6826.23,6380.12 c -123.03,-123.05 -322.54,-123.04 -445.59,0 v 0 c -123.04,123.04 -123.04,322.55 0,445.59 l 403.17,403.17 c 123.05,123.04 322.54,123.04 445.6,0 v 0 c 123.03,-123.04 123.05,-322.55 0,-445.6 l -403.18,-403.16" /><path
         id="path22"
         style="fill:none;stroke:#100f0d;stroke-width:10;stroke-linecap:butt;stroke-linejoin:miter;stroke-miterlimit:10;stroke-dasharray:none;stroke-opacity:1"
         d="m 6826.23,6380.12 c -123.03,-123.05 -322.54,-123.04 -445.59,0 v 0 c -123.04,123.04 -123.04,322.55 0,445.59 l 403.17,403.17 c 123.05,123.04 322.54,123.04 445.6,0 v 0 c 123.03,-123.04 123.05,-322.55 0,-445.6 z" /><path
         id="path24"
         style="fill:#100f0d;fill-opacity:1;fill-rule:nonzero;stroke:none"
         d="m 5853.71,4572.97 c 265.96,358.3 236.56,866.82 -88.43,1191.8 -324.97,324.97 -833.49,354.39 -1191.78,88.41 L 5853.71,4572.97" /><path
         id="path26"
         style="fill:#ffffff;fill-opacity:1;fill-rule:nonzero;stroke:none"
         d="m 5896.88,4547.73 c 278.78,381.96 234.08,916.69 -96.24,1252.39 -329.91,335.27 -875.03,371.67 -1252.38,96.24 -25.65,-18.72 -34.67,-53.99 -10.12,-78.53 352.87,-352.87 705.73,-705.73 1058.59,-1058.59 73.88,-73.88 147.75,-147.76 221.62,-221.62 45.64,-45.65 116.35,25.07 70.71,70.7 -352.86,352.87 -705.73,705.73 -1058.59,1058.59 -73.87,73.88 -147.75,147.76 -221.62,221.63 -3.37,-26.18 -6.75,-52.35 -10.12,-78.53 346.12,252.64 824.94,220.75 1131.2,-80.6 305.89,-300.98 330.17,-789.28 80.6,-1131.21 -38.08,-52.17 48.74,-101.99 86.35,-50.47" /><path
         id="path28"
         style="fill:#100f0d;fill-opacity:1;fill-rule:nonzero;stroke:none"
         d="m 8249.18,3535.51 -4713.15,4713.15 869.98,869.98 4713.17,-4713.16 -870,-869.97" /><path
         id="path30"
         style="fill:none;stroke:#100f0d;stroke-width:10;stroke-linecap:butt;stroke-linejoin:miter;stroke-miterlimit:10;stroke-dasharray:none;stroke-opacity:1"
         d="M 8249.18,3535.51 3536.03,8248.66 4406.01,9118.64 9119.18,4405.48 Z" /><path
         id="path32"
         style="fill:#100f0d;fill-opacity:1;fill-rule:nonzero;stroke:none"
         d="m 6041.15,5276.73 -763.9,763.89 1294.37,1294.35 763.87,-763.89 -1294.34,-1294.35" /><path
         id="path34"
         style="fill:#ffffff;fill-opacity:1;fill-rule:nonzero;stroke:none"
         d="m 6076.5,5312.08 c -254.62,254.64 -509.26,509.27 -763.89,763.9 0,-23.57 0,-47.14 0,-70.71 352.68,352.68 705.37,705.36 1058.05,1058.04 78.77,78.77 157.54,157.53 236.31,236.3 -23.56,0 -47.14,0 -70.7,0 254.62,-254.62 509.24,-509.25 763.87,-763.88 0,23.57 0,47.14 0,70.71 -352.68,-352.68 -705.36,-705.37 -1058.04,-1058.04 -78.77,-78.77 -157.53,-157.55 -236.3,-236.32 -45.64,-45.63 25.07,-116.35 70.7,-70.7 352.68,352.67 705.37,705.36 1058.04,1058.04 78.77,78.77 157.53,157.54 236.3,236.31 19.27,19.26 19.27,51.45 0,70.71 -254.62,254.63 -509.24,509.26 -763.87,763.89 -19.26,19.26 -51.44,19.26 -70.7,0 -352.69,-352.68 -705.38,-705.36 -1058.06,-1058.04 -78.77,-78.77 -157.55,-157.54 -236.32,-236.31 -19.26,-19.26 -19.26,-51.45 0,-70.71 254.64,-254.64 509.27,-509.26 763.91,-763.89 45.64,-45.65 116.35,25.07 70.7,70.7" /><path
         id="path36"
         style="fill:#100f0d;fill-opacity:1;fill-rule:nonzero;stroke:none"
         d="m 4657.76,4418.92 c -65.28,-65.28 -171.55,-64.86 -237.36,0.95 -65.82,65.81 -66.23,172.09 -0.95,237.36 65.28,65.29 171.55,64.87 237.36,-0.93 65.83,-65.83 66.23,-172.09 0.95,-237.38" /><path
         id="path38"
         style="fill:none;stroke:#100f0d;stroke-width:10;stroke-linecap:butt;stroke-linejoin:miter;stroke-miterlimit:10;stroke-dasharray:none;stroke-opacity:1"
         d="m 4657.76,4418.92 c -65.28,-65.28 -171.55,-64.86 -237.36,0.95 -65.82,65.81 -66.23,172.09 -0.95,237.36 65.28,65.29 171.55,64.87 237.36,-0.93 65.83,-65.83 66.23,-172.09 0.95,-237.38 z" /><path
         id="path40"
         style="fill:#100f0d;fill-opacity:1;fill-rule:nonzero;stroke:none"
         d="m 4086.09,4558.58 c 0,0.03 0.02,0.07 0.01,0.12 h -238.55 c 0.01,-0.06 -0.01,-0.09 0,-0.14 -0.19,-6.75 0.25,-13.11 0.98,-19.28 19.95,-385.89 322.47,-682.51 711.29,-692.98 0.16,-0.01 0.32,-0.01 0.47,-0.01 v 238.56 c -0.15,0.01 -0.32,-0.02 -0.46,-0.02 -263.81,-7.11 -466.91,220.61 -473.74,473.75" /><path
         id="path42"
         style="fill:#100f0d;fill-opacity:1;fill-rule:nonzero;stroke:none"
         d="m 3578.43,4558.56 c 0,0.05 0,0.09 0.01,0.14 h -238.55 c 0,-0.05 0,-0.09 0,-0.13 -0.08,-4.81 0.09,-9.49 0.48,-14.01 13.73,-534.19 359.75,-993.39 869.85,-1155.06 115.67,-36.66 233.5,-53.46 350.08,-52.7 l -0.01,240.4 c -0.15,-0.01 -0.31,-0.03 -0.47,-0.02 -541.21,-7.98 -973.59,452.24 -981.39,981.38" /><path
         id="path44"
         style="fill:#100f0d;fill-opacity:1;fill-rule:nonzero;stroke:none"
         d="m 3119.38,4558.58 c 0,0.03 0,0.07 0,0.12 h -238.55 c 0,-0.05 0,-0.09 0,-0.13 5.71,-542.63 261.15,-1032.48 692.64,-1358.09 283.15,-213.68 634.96,-319.67 986.83,-319.11 v 235 c -762.67,2.53 -1432.51,642.47 -1440.92,1442.21" /></g></g></svg>