<?xml version="1.0" encoding="UTF-8" standalone="no"?>
<svg
   xmlns:dc="http://purl.org/dc/elements/1.1/"
   xmlns:cc="http://creativecommons.org/ns#"
   xmlns:rdf="http://www.w3.org/1999/02/22-rdf-syntax-ns#"
   xmlns:svg="http://www.w3.org/2000/svg"
   xmlns="http://www.w3.org/2000/svg"
   viewBox="0 0 133.33333 133.33333"
   height="133.33333"
   width="133.33333"
   xml:space="preserve"
   id="svg2"
   version="1.1"><metadata
     id="metadata8"><rdf:RDF><cc:Work
         rdf:about=""><dc:format>image/svg+xml</dc:format><dc:type
           rdf:resource="http://purl.org/dc/dcmitype/StillImage" /></cc:Work></rdf:RDF></metadata><defs
     id="defs6" /><g
     transform="matrix(1.3333333,0,0,-1.3333333,0,133.33333)"
     id="g10"><g
       transform="scale(0.1)"
       id="g12"><path
         id="path14"
         style="fill:#ffffff;fill-opacity:1;fill-rule:nonzero;stroke:none"
         d="M 1000,0 H 0 V 1000 H 1000 V 0" /><path
         id="path16"
         style="fill:#3b393d;fill-opacity:1;fill-rule:nonzero;stroke:none"
         d="m 433.32,293.91 -115.504,106.031 -177.441,12.899 133.82,274.633 151.274,3.586 108.527,-90.75 z m 356.91,327.653 c -3.894,-5.793 -8.367,-12.688 -13.167,-20.243 l 97.828,-61.785 -100.039,-329.703 -143.946,84.672 -174.902,-8.899 101.488,308.875 42.367,6.176 c -5.254,8.27 -10.117,15.766 -14.281,21.93 l -33.148,-4.852 h -0.004 l -118.309,98.993 -176.258,-7.243 -154.527,-318.711 205.234,-14.488 126.36,-115.894 189.937,9.656 164.184,-96.578 114.285,376.66 -113.102,71.434" /><path
         id="path18"
         style="fill:#3b393d;fill-opacity:1;fill-rule:nonzero;stroke:none"
         d="m 688.25,664.004 c -34.434,0 -62.348,27.566 -62.348,61.578 0,34.008 27.914,61.578 62.348,61.578 34.434,0 62.344,-27.57 62.344,-61.578 0,-34.012 -27.91,-61.578 -62.344,-61.578 z m 0,167.008 c -63.109,0 -114.266,-51.157 -114.266,-114.262 0,-27.543 11.106,-51.766 25.981,-72.539 24.406,-34.086 88.285,-142.563 88.285,-142.563 0,0 63.875,108.477 88.281,142.563 14.875,20.773 25.981,44.996 25.981,72.539 0,63.105 -51.157,114.262 -114.262,114.262" /><path
         id="path20"
         style="fill:#3b393d;fill-opacity:1;fill-rule:nonzero;stroke:none"
         d="m 822.758,469.629 c -0.02,0.043 -0.051,0.082 -0.09,0.105 l -17.711,11.559 c -0.121,0.078 -0.289,0.031 -0.352,-0.105 l -2.601,-5.547 c -0.066,-0.137 -0.242,-0.184 -0.363,-0.094 l -4.02,2.898 c -0.023,0.016 -0.051,0.028 -0.078,0.035 l -5.195,1.469 c -0.02,0.004 -0.035,0.008 -0.055,0.012 l -5.703,0.324 c -0.113,0.008 -0.207,0.09 -0.227,0.203 l -0.758,4.52 c -0.011,0.082 -0.066,0.152 -0.14,0.183 l -4.07,1.774 c -0.02,0.008 -0.04,0.015 -0.063,0.019 l -5.336,0.75 c -0.93,0.133 -3.168,5.426 -3.375,5.918 -0.008,0.028 -0.023,0.047 -0.043,0.067 -0.316,0.355 -3.351,3.695 -6.32,4.351 -2.985,0.657 -8.586,0.332 -9.125,0.297 -0.028,0 -0.055,-0.008 -0.082,-0.015 l -9.711,-4.157 c -0.156,-0.062 -0.328,0.039 -0.34,0.207 l -0.266,3.383 c -0.019,0.238 -0.339,0.309 -0.457,0.098 l -2.101,-3.809 c -0.086,-0.156 -0.301,-0.172 -0.406,-0.027 l -1.774,2.355 c -0.058,0.075 -0.066,0.18 -0.016,0.266 l 2.489,4.363 c 0.047,0.082 0.043,0.184 -0.008,0.262 l -4.043,5.898 c 0,0 -2.063,3.028 -5.125,0.723 -3.063,-2.305 -5.113,-4.504 -6.578,-4.301 -1.402,0.2 -6.067,3.141 -6.461,3.391 -0.02,0.008 -0.039,0.019 -0.059,0.023 l -5.652,1.786 c -0.023,0.003 -0.047,0.007 -0.07,0.007 l -3.52,0.071 c -5.765,-9.696 -9.422,-15.899 -9.57,-16.153 l -15.133,-25.695 -15.133,25.695 c -0.168,0.289 -4.824,8.188 -11.969,20.18 l -1.523,0.418 c -0.121,0.031 -0.195,0.148 -0.18,0.269 l 0.25,1.75 c -0.703,1.176 -1.425,2.383 -2.168,3.629 -1.894,1.305 -4.355,2.45 -5.23,0.391 -1.492,-3.523 -2.723,-17.535 -2.723,-17.535 l -0.363,-4.141 c -0.02,-0.207 -0.273,-0.297 -0.418,-0.148 l -8.066,8.297 c -0.122,0.125 -0.329,0.082 -0.399,-0.078 l -2.433,-5.864 c -0.04,-0.086 -0.122,-0.144 -0.215,-0.148 l -3.77,-0.172 c -0.055,-0.004 -0.109,0.016 -0.152,0.047 l -3.192,2.328 c -0.078,0.055 -0.175,0.062 -0.257,0.019 l -5.758,-3.062 c -0.02,-0.012 -0.039,-0.016 -0.059,-0.02 -0.41,-0.101 -5.152,-1.296 -5.75,-2.164 -0.508,-0.734 -0.804,-2.312 -0.902,-2.886 -0.02,-0.129 -0.137,-0.215 -0.266,-0.203 -0.484,0.05 -1.582,0.277 -1.828,1.273 -0.301,1.223 0.344,4.34 0.406,4.645 0.004,0.015 0.004,0.031 0.004,0.05 v 0.969 c 0,0.234 -0.301,0.332 -0.441,0.141 l -2.297,-3.172 c -0.031,-0.039 -0.047,-0.086 -0.047,-0.133 l -0.262,-7.004 c 0,-0.066 -0.031,-0.129 -0.078,-0.172 l -3.832,-3.512 c -0.058,-0.054 -0.14,-0.074 -0.219,-0.058 l -2.746,0.625 c -0.015,0.004 -0.031,0.008 -0.043,0.016 l -3.675,1.667 c -0.141,0.067 -0.309,-0.019 -0.336,-0.175 l -0.875,-4.543 c 0,0 -0.172,-1.219 -1.711,0.242 -1.453,1.383 -1.442,3.672 -1.434,3.914 0,0.016 -0.004,0.027 -0.004,0.043 l -1.086,6.703 c -0.039,0.227 0.227,0.371 0.399,0.227 1.179,-1.012 4.078,-3.45 4.66,-3.532 0.687,-0.097 3.5,0.829 3.832,0.938 0.023,0.008 0.043,0.016 0.059,0.031 l 2.89,1.965 c 0.07,0.047 0.11,0.129 0.106,0.211 l -0.211,5.293 c 0,0.051 -0.02,0.101 -0.051,0.141 -0.41,0.507 -3.203,3.992 -4.145,5.507 -0.91,1.473 -5.457,1.442 -6.363,1.418 -0.094,0 -0.18,0.055 -0.223,0.141 l -1.011,2.101 c -0.043,0.094 -0.024,0.208 0.051,0.282 l 2.554,2.504 c 0.11,0.105 0.098,0.281 -0.027,0.371 l -8.133,5.863 c -0.117,0.086 -0.277,0.051 -0.352,-0.07 l -2.726,-4.496 c -0.035,-0.059 -0.094,-0.098 -0.164,-0.114 -1.32,-0.23 -14.277,-2.543 -16.195,-4.398 -1.961,-1.902 -7.766,-12.684 -8.082,-13.266 -0.008,-0.019 -0.02,-0.035 -0.032,-0.047 l -8.261,-9.265 -3.59,-3.875 c -0.051,-0.051 -0.075,-0.129 -0.063,-0.199 l 0.934,-6.114 c 0.012,-0.082 0.066,-0.152 0.144,-0.183 l 4.567,-1.977 9.14,-3.43 c 0.184,-0.07 0.215,-0.312 0.059,-0.425 l -3.336,-2.364 c -0.016,-0.011 -0.031,-0.023 -0.043,-0.039 l -3.066,-3.574 c -0.153,-0.18 -0.446,-0.055 -0.426,0.18 l 0.406,4.984 c 0.016,0.211 -0.223,0.344 -0.391,0.215 l -3.683,-2.773 c -0.039,-0.028 -0.067,-0.071 -0.082,-0.114 l -2.442,-7.16 c -0.043,-0.133 -0.199,-0.199 -0.328,-0.141 l -2.023,0.899 c -0.109,0.051 -0.238,0.012 -0.305,-0.09 l -2.883,-4.543 c -0.031,-0.051 -0.078,-0.086 -0.136,-0.105 l -2.426,-0.703 c -0.051,-0.016 -0.094,-0.047 -0.125,-0.086 l -2.129,-2.817 c -0.07,-0.094 -0.191,-0.125 -0.297,-0.074 l -3.172,1.461 c -0.094,0.043 -0.203,0.023 -0.273,-0.051 l -2.438,-2.441 c -0.035,-0.035 -0.078,-0.059 -0.129,-0.071 l -1.777,-0.324 c -0.191,-0.035 -0.266,-0.269 -0.129,-0.41 l 2.61,-2.695 c 0.003,-0.004 0.007,-0.004 0.011,-0.008 l 2.461,-2.856 c 0.063,-0.07 0.074,-0.171 0.039,-0.257 l -2.144,-4.883 c -0.051,-0.11 -0.172,-0.168 -0.285,-0.137 l -9.911,2.594 c -0.121,0.031 -0.246,-0.035 -0.289,-0.149 l -2.066,-5.371 c -0.012,-0.019 -0.016,-0.043 -0.02,-0.066 l -0.379,-4.844 c -0.003,-0.066 0.02,-0.137 0.067,-0.183 l 2.293,-2.422 c 0.012,-0.008 0.019,-0.02 0.031,-0.028 l 2.617,-1.965 c 0.075,-0.054 0.114,-0.148 0.094,-0.242 l -0.176,-0.898 c -0.011,-0.063 -0.051,-0.121 -0.105,-0.156 l -6.16,-3.996 c -0.036,-0.024 -0.063,-0.055 -0.082,-0.094 l -4.075,-8.012 c -0.019,-0.039 -0.05,-0.07 -0.086,-0.094 l -9.714,-6.238 c -0.051,-0.031 -0.09,-0.086 -0.106,-0.145 -0.238,-1 -2.281,-9.593 -1.492,-10.64 0.793,-1.051 1.656,-10.949 1.758,-12.09 0.004,-0.066 0.039,-0.129 0.094,-0.172 l 9.074,-6.922 c 0.035,-0.023 0.074,-0.039 0.113,-0.047 l 9.453,-1.332 12.887,-1.816 c 0.031,-0.008 0.062,-0.016 0.09,-0.031 l 3.289,-1.887 c 0.074,-0.043 0.121,-0.125 0.121,-0.211 l 0.055,-10.027 c 0,-0.028 0.003,-0.059 0.011,-0.082 l 3.391,-9.086 c 0.019,-0.047 0.019,-0.094 0.012,-0.141 l -2.493,-10.691 c -0.011,-0.051 -0.039,-0.098 -0.082,-0.133 -0.617,-0.504 -5.484,-4.563 -4.699,-7.238 0.844,-2.856 4.903,-12.887 5.641,-16.473 0.668,-3.246 3.644,-8.848 4.211,-9.895 0.054,-0.101 0.172,-0.148 0.281,-0.117 l 9.629,2.774 c 0.027,0.007 0.051,0.019 0.074,0.035 l 11.274,8.055 c 0.027,0.015 0.046,0.039 0.066,0.066 0.492,0.789 8.008,12.797 8.141,13.738 0.128,0.926 5.05,5.844 5.586,6.379 0.031,0.027 0.054,0.067 0.066,0.109 l 3.254,12.598 c 0.012,0.043 0.031,0.078 0.058,0.11 0.711,0.73 9.622,9.886 11.122,12.066 1.355,1.961 5.878,7.941 7.078,9.523 0.121,0.161 0.007,0.391 -0.192,0.391 -1.91,0.012 -8.851,0.066 -9.691,0.187 -0.879,0.125 -3.211,1.465 -3.656,1.727 -0.047,0.027 -0.086,0.074 -0.106,0.125 l -3.039,8.039 c -0.008,0.02 -0.012,0.039 -0.016,0.063 l -0.703,7.261 c 0,0.016 -0.004,0.032 -0.008,0.043 l -3.433,11.946 c -0.039,0.125 0.031,0.257 0.152,0.3 l 1.153,0.383 c 0.113,0.039 0.238,-0.012 0.293,-0.117 l 3.402,-6.477 c 0.019,-0.039 0.031,-0.082 0.027,-0.125 -0.043,-0.703 -0.375,-6.687 0.578,-8.226 0.977,-1.582 4.043,-6.473 4.25,-6.805 0.008,-0.012 0.016,-0.023 0.028,-0.035 l 1.242,-1.371 c 0.023,-0.027 0.051,-0.047 0.082,-0.059 l 6.66,-2.89 c 0.059,-0.028 0.129,-0.028 0.188,0 l 15.16,6.23 c 0.043,0.02 0.082,0.051 0.109,0.094 0.371,0.57 3.055,4.824 2.109,6.352 -0.941,1.515 -4.222,3.152 -4.691,3.378 -0.035,0.02 -0.074,0.028 -0.117,0.024 l -5.27,-0.207 c -0.101,-0.004 -0.199,0.058 -0.234,0.156 l -2.109,5.617 -2.211,5.629 c -0.075,0.184 0.09,0.375 0.285,0.324 1.023,-0.254 3.43,-0.957 3.484,-1.941 0.074,-1.258 -0.512,-5.402 1.196,-5.645 1.707,-0.242 3.417,-0.48 4.218,-0.097 0.68,0.328 3.293,0.379 4.067,0.39 0.125,0 0.23,-0.093 0.246,-0.214 l 0.414,-3.418 c 0.012,-0.098 0.082,-0.18 0.18,-0.204 l 8.917,-2.23 c 0.036,-0.012 0.075,-0.012 0.11,-0.004 l 4.07,0.82 c 0.129,0.028 0.254,-0.054 0.285,-0.179 l 1.325,-5.594 c 0.015,-0.066 0.003,-0.133 -0.032,-0.188 -0.328,-0.527 -1.996,-3.285 -0.355,-2.839 1.48,0.402 3.387,1.41 4.027,1.765 0.121,0.067 0.274,0.016 0.332,-0.105 l 1.613,-3.211 c 0.016,-0.027 0.024,-0.063 0.028,-0.094 l 0.601,-9.715 c 0.004,-0.015 0.004,-0.035 0.012,-0.054 l 2.684,-9.036 c 0.004,-0.019 0.011,-0.035 0.023,-0.054 0.152,-0.254 1.399,-2.305 1.621,-0.703 0.242,1.707 4.067,7.64 4.239,8.859 l 0.5,3.551 c 0.011,0.07 0.046,0.133 0.105,0.172 l 4.832,3.207 c 0.016,0.011 0.031,0.019 0.047,0.023 l 11.191,4.328 c 0.067,0.028 0.137,0.024 0.2,-0.008 l 3.3,-1.644 c 0.059,-0.027 0.102,-0.078 0.121,-0.137 l 2.25,-6.375 c 0.02,-0.055 0.055,-0.097 0.102,-0.125 l 3.91,-2.441 c 0.082,-0.051 0.125,-0.149 0.113,-0.242 l -0.531,-3.747 -0.953,-6.777 c -0.008,-0.035 -0.004,-0.074 0.012,-0.113 l 3.511,-10.141 c 0.004,-0.004 0.004,-0.011 0.008,-0.015 l 0.766,-2.934 c 0.023,-0.098 0.101,-0.168 0.199,-0.18 l 2.332,-0.332 c 0.113,-0.015 0.223,0.051 0.262,0.157 0.336,0.898 1.734,4.82 0.687,5.187 -1.187,0.414 -4.812,2.918 -4.675,3.895 0.136,0.976 0.48,3.414 0.687,4.878 0.149,1.051 0.277,2.868 0.34,3.817 0.012,0.219 0.289,0.308 0.43,0.137 l 1.921,-2.317 c 0.016,-0.019 0.028,-0.039 0.04,-0.062 0.117,-0.297 0.96,-2.379 1.8,-2.961 0.77,-0.528 2.086,-0.957 2.473,-1.074 0.066,-0.024 0.145,-0.012 0.203,0.027 l 6.852,4.527 c 0.105,0.071 0.14,0.215 0.074,0.324 l -4.234,7.305 c -0.036,0.055 -0.043,0.121 -0.028,0.188 l 1.43,5.047 c 0.023,0.074 0.078,0.132 0.148,0.16 0.547,0.203 2.864,1.031 3.508,0.941 0.649,-0.094 2.234,-0.512 2.582,-0.605 0.043,-0.012 0.094,-0.012 0.137,0.004 l 9,2.902 c 0.039,0.012 0.07,0.031 0.098,0.058 l 6.011,6.036 c 0.024,0.023 0.043,0.046 0.055,0.078 0.25,0.605 3.008,7.289 3.137,8.218 0.136,0.981 -1.782,3.239 -1.68,3.973 0.086,0.598 1.801,2.133 2.422,2.668 0.113,0.102 0.109,0.281 -0.008,0.375 l -2.449,1.934 c -0.004,0.004 -0.008,0.008 -0.016,0.011 l -2.769,2.637 c -0.133,0.129 -0.086,0.352 0.089,0.406 l 6.036,2.024 c 0.172,0.058 0.343,-0.082 0.316,-0.262 l -0.484,-3.453 c -0.024,-0.156 0.105,-0.293 0.261,-0.277 l 3.954,0.359 c 0.015,0.004 0.035,0 0.054,-0.004 l 0.996,-0.137 c 0.114,-0.019 0.203,-0.109 0.211,-0.222 l 0.41,-5.563 c 0,-0.019 0.004,-0.039 0.012,-0.058 l 1.149,-3.422 c 0.039,-0.117 0.16,-0.184 0.281,-0.16 l 4.445,0.961 c 0.121,0.027 0.207,0.144 0.192,0.269 -0.153,1.133 -0.833,6.234 -0.926,7.129 -0.106,1.012 1.593,6 2.883,6.312 1.289,0.317 4.668,-0.41 5.367,-0.753 0.66,-0.332 5.441,3.343 5.961,3.742 0.031,0.023 0.054,0.054 0.074,0.09 l 9.683,20.382 c 0.086,0.176 -0.062,0.372 -0.253,0.344 -1.68,-0.246 -7.477,-0.937 -7.598,1.207 -0.141,2.395 8.695,8.961 9.508,9.559 0.035,0.027 0.082,0.043 0.133,0.043 l 10.449,0.504 11.222,0.882 c 0.067,0.008 0.125,0.036 0.168,0.086 l 4.536,5.286 c 0.089,0.101 0.246,0.113 0.347,0.023 l 3.629,-3.238 c 0.094,-0.082 0.109,-0.223 0.035,-0.324 l -4.472,-6.106 c -0.012,-0.019 -0.032,-0.039 -0.051,-0.055 -0.488,-0.351 -6.649,-4.828 -7.348,-6.402 -0.715,-1.609 -1.019,-8.789 -1.031,-9.055 0,-0.004 0,-0.011 0,-0.011 l -0.723,-6.75 c -0.023,-0.219 0.231,-0.356 0.399,-0.211 l 4.586,3.843 c 0.019,0.02 0.039,0.039 0.05,0.063 l 5.536,9.375 c 0.003,0.008 0.003,0.012 0.007,0.016 0.036,0.265 0.918,6.367 2.075,7.664 1.183,1.324 1.773,1.988 6.546,2.308 4.778,0.324 7.461,-0.054 10.176,1.555 2.637,1.558 10.172,4.543 10.602,4.715 0.012,0.004 0.023,0.011 0.035,0.019 l 9.23,5.641 c 0.008,0.004 0.016,0.012 0.028,0.019 l 6.039,4.969 c 0.082,0.07 0.109,0.188 0.066,0.285 l -4.023,9.309" /><path
         id="path22"
         style="fill:#3b393d;fill-opacity:1;fill-rule:nonzero;stroke:none"
         d="m 717.629,516.703 0.016,0.059 c -0.04,-0.067 -0.079,-0.133 -0.122,-0.203 l 0.028,0.019 c 0.039,0.035 0.066,0.078 0.078,0.125" /><path
         id="path24"
         style="fill:#3b393d;fill-opacity:1;fill-rule:nonzero;stroke:none"
         d="m 733.637,313.848 -5.688,3.55 c -0.121,0.079 -0.148,0.239 -0.062,0.356 0.316,0.422 1,1.43 1.136,2.406 0.18,1.281 -0.16,2.82 -0.5,3.055 -0.312,0.219 -8.238,1.191 -9.523,1.348 -0.105,0.015 -0.207,-0.043 -0.25,-0.137 l -1.715,-3.719 c -0.055,-0.113 -0.183,-0.168 -0.305,-0.129 l -4.304,1.527 c -0.071,0.024 -0.145,0.016 -0.203,-0.019 l -5.457,-3.164 c -0.082,-0.051 -0.129,-0.145 -0.118,-0.238 0.079,-0.657 0.321,-3.141 -0.539,-3.504 -0.964,-0.41 -4.234,-0.848 -4.406,-0.871 0,0 -0.012,0 -0.015,0 l -4.36,-0.86 c -0.031,-0.008 -0.062,-0.019 -0.09,-0.039 l -4.191,-2.836 c -0.063,-0.043 -0.102,-0.117 -0.106,-0.195 l -0.265,-9.715 c 0,-0.008 0,-0.019 -0.004,-0.027 l -0.895,-6.336 c -0.004,-0.035 -0.015,-0.071 -0.035,-0.102 -0.355,-0.535 -3.699,-5.644 -2.808,-6.832 0.945,-1.254 5.519,-1.898 6.406,-0.906 0.851,0.957 6.555,3.457 7.019,3.66 0.02,0.008 0.043,0.016 0.063,0.02 l 5.851,0.836 c 0.016,0.003 0.032,0.003 0.043,0.003 l 8.614,-0.296 c 0.062,0 0.121,-0.024 0.164,-0.067 l 4.66,-4.547 c 0.101,-0.101 0.269,-0.09 0.359,0.028 l 2.473,3.187 c 0.062,0.078 0.164,0.113 0.258,0.09 0.441,-0.125 1.664,-0.508 1.754,-0.977 0.082,-0.453 -0.938,-2.98 -1.375,-4.043 -0.078,-0.187 0.093,-0.378 0.293,-0.324 l 1.461,0.418 c 0.175,0.051 0.343,-0.101 0.308,-0.281 l -0.57,-2.902 c -0.012,-0.043 -0.008,-0.09 0.012,-0.133 l 1.011,-2.66 c 0.032,-0.082 0.106,-0.145 0.196,-0.157 l 3.234,-0.457 c 0.062,-0.007 0.121,-0.039 0.16,-0.093 l 0.785,-1.043 c 0.059,-0.078 0.157,-0.114 0.25,-0.09 l 2.575,0.629 c 0.101,0.027 0.21,-0.02 0.265,-0.106 l 0.543,-0.879 c 0.07,-0.109 0.215,-0.148 0.328,-0.082 l 3.399,1.95 c 0.035,0.019 0.074,0.031 0.113,0.031 0.453,0.015 3.316,0.129 3.387,0.633 0.074,0.504 1.402,3.199 1.613,3.629 0.019,0.039 0.047,0.07 0.082,0.093 0.453,0.309 3.691,2.504 4.176,3.477 0.496,1 1.371,4.664 1.449,4.996 0.004,0.016 0.004,0.031 0.004,0.047 0.016,0.441 0.176,6.699 -0.43,7.504 -0.605,0.8 -4.785,6.754 -5.113,7.226 -0.016,0.02 -0.027,0.043 -0.035,0.067 l -2.324,7.187 c 0,0.008 -0.004,0.016 -0.004,0.024 l -0.996,4.777 c -0.004,0.012 -0.008,0.023 -0.012,0.035 l -2.07,5.442 c -0.055,0.14 -0.219,0.199 -0.348,0.128 l -2.098,-1.16 c -0.054,-0.027 -0.094,-0.074 -0.113,-0.133 l -2.758,-8.171 c -0.051,-0.149 -0.226,-0.211 -0.359,-0.129" /><path
         id="path26"
         style="fill:#3b393d;fill-opacity:1;fill-rule:nonzero;stroke:none"
         d="m 704.027,354.977 3.536,-2.325 c 0.171,-0.113 0.132,-0.375 -0.063,-0.433 l -2.949,-0.899 c -0.113,-0.031 -0.184,-0.14 -0.172,-0.257 l 0.488,-4.946 c 0.004,-0.019 0.004,-0.039 0,-0.058 l -0.156,-1.118 c -0.008,-0.046 -0.027,-0.093 -0.059,-0.128 l -2.562,-2.872 c -0.035,-0.039 -0.055,-0.082 -0.063,-0.128 l -0.449,-3.176 c -0.019,-0.153 -0.172,-0.246 -0.316,-0.196 l -4.082,1.383 c -0.024,0.012 -0.047,0.016 -0.071,0.016 l -2.332,0.094 c -0.066,0.004 -0.132,0.035 -0.175,0.082 l -2.278,2.609 c -0.008,0.008 -0.011,0.016 -0.019,0.02 l -1.223,1.769 c -0.008,0.008 -0.012,0.016 -0.016,0.024 l -1.632,1.89 c -0.043,0.051 -0.067,0.121 -0.055,0.192 l 0.152,1.074 c 0.012,0.097 0.082,0.176 0.176,0.203 l 3.723,1.023 c 0.004,0 0.008,0.004 0.015,0.004 0.176,0.035 3.59,0.758 4.125,1.531 0.547,0.793 5.508,4.2 5.508,4.2 l 0.688,0.425 c 0.082,0.047 0.183,0.047 0.261,-0.003" /><path
         id="path28"
         style="fill:#3b393d;fill-opacity:1;fill-rule:nonzero;stroke:none"
         d="m 723.352,340.418 0.632,-3.082 c 0.024,-0.102 0.106,-0.18 0.204,-0.195 l 1.785,-0.25 c 0.132,-0.02 0.226,-0.145 0.207,-0.278 l -0.207,-1.468 c -0.02,-0.133 0.074,-0.254 0.207,-0.274 l 1.441,-0.203 c 0.02,-0.004 0.035,-0.008 0.055,-0.016 l 1.91,-0.742 c 0.043,-0.019 0.082,-0.047 0.109,-0.086 l 1.801,-2.535 c 0.02,-0.023 0.031,-0.047 0.039,-0.074 l 0.531,-1.91 c 0.024,-0.078 0.004,-0.16 -0.043,-0.219 l -1.476,-1.824 c -0.117,-0.145 -0.039,-0.356 0.141,-0.395 l 3.816,-0.762 c 0.016,0 0.031,-0.007 0.047,-0.015 l 3.304,-1.43 c 0.047,-0.023 0.102,-0.027 0.153,-0.015 l 3.605,0.816 c 0.028,0.004 0.055,0.016 0.078,0.031 l 1.895,1.238 c 0.133,0.086 0.312,0.024 0.363,-0.125 l 1.266,-3.777 c 0.023,-0.066 0.074,-0.121 0.137,-0.148 l 4.195,-1.731 c 0.148,-0.058 0.312,0.035 0.332,0.192 l 0.316,2.238 c 0.012,0.086 -0.019,0.172 -0.09,0.223 l -2.808,2.25 c -0.063,0.05 -0.098,0.128 -0.094,0.207 l 0.199,2.976 c 0.008,0.129 -0.082,0.238 -0.207,0.258 l -1.765,0.25 c -0.055,0.008 -0.11,0.035 -0.145,0.074 -0.328,0.367 -1.922,2.16 -2.265,2.875 -0.332,0.692 -2.29,0.965 -2.829,1.028 -0.082,0.007 -0.156,0.062 -0.191,0.14 l -1.027,2.281 c -0.035,0.075 -0.102,0.125 -0.18,0.141 l -3.113,0.559 c -0.024,0.004 -0.047,0.011 -0.071,0.023 L 733.012,338 c -0.024,0.012 -0.051,0.02 -0.078,0.023 l -1.489,0.211 c -0.039,0.004 -0.078,0 -0.109,-0.011 l -2.391,-0.801 c -0.101,-0.031 -0.211,0.004 -0.273,0.09 l -1.914,2.676 c -0.039,0.054 -0.098,0.089 -0.164,0.097 l -2.973,0.422 c -0.164,0.023 -0.305,-0.125 -0.269,-0.289" /><path
         id="path30"
         style="fill:#3b393d;fill-opacity:1;fill-rule:nonzero;stroke:none"
         d="m 576.227,569.988 c 0,0 -2.168,0.957 -2.274,0.879 -0.098,-0.07 -0.742,-2.179 -0.844,-2.512 -0.011,-0.027 -0.011,-0.058 -0.011,-0.089 l 0.183,-2.282 c 0.004,-0.043 0.016,-0.082 0.039,-0.113 l 1.078,-1.668 c 0.04,-0.058 0.051,-0.137 0.028,-0.207 l -0.442,-1.383 c -0.015,-0.054 -0.011,-0.113 0.008,-0.168 l 1.453,-3.511 c 0.028,-0.067 0.028,-0.141 -0.007,-0.204 -0.215,-0.421 -1.008,-2.042 -0.465,-2.035 0.535,0.004 1.269,0.442 1.465,0.563 0.031,0.019 0.066,0.031 0.105,0.035 0.25,0.023 1.258,0.156 1.457,0.809 0.148,0.476 0.559,1.304 0.836,1.843 0.102,0.196 0.387,0.168 0.449,-0.043 0.047,-0.152 0.094,-0.308 0.125,-0.414 0.063,-0.222 0.762,-0.39 1.082,-0.457 0.094,-0.015 0.192,0.02 0.246,0.102 l 0.649,0.914 c 0.14,0.195 0.449,0.094 0.441,-0.149 l -0.043,-1.519 c -0.004,-0.098 -0.058,-0.18 -0.144,-0.219 l -3.055,-1.312 c -0.012,-0.004 -0.023,-0.008 -0.031,-0.012 -0.219,-0.063 -2.774,-0.797 -2.809,-1.031 -0.027,-0.211 0.617,-1.95 0.789,-2.403 0.028,-0.07 0.082,-0.121 0.149,-0.144 l 1.336,-0.453 c 0.183,-0.067 0.222,-0.305 0.07,-0.426 l -0.68,-0.524 c -0.051,-0.042 -0.121,-0.058 -0.187,-0.046 l -1.446,0.246 c -0.191,0.035 -0.343,-0.164 -0.261,-0.34 l 0.547,-1.195 c 0.011,-0.032 0.035,-0.059 0.058,-0.082 l 2.399,-2.118 c 0.05,-0.043 0.082,-0.109 0.082,-0.179 l -0.004,-1.731 c 0,-0.105 0.07,-0.203 0.175,-0.234 l 0.684,-0.196 c 0.109,-0.035 0.223,0.016 0.277,0.114 0.289,0.519 1.188,2.121 1.918,3.281 0.883,1.398 2.133,3.867 2.133,3.867 l 1.985,4.184 c 0.003,0.008 0.011,0.019 0.015,0.027 0.125,0.188 1.348,1.985 1.692,2.11 0.265,0.101 0.851,0.355 1.148,0.484 0.102,0.047 0.16,0.156 0.141,0.266 l -0.403,2.199 c -0.011,0.066 -0.05,0.125 -0.105,0.16 l -2.41,1.582 c -0.059,0.043 -0.102,0.105 -0.106,0.18 -0.051,0.445 -0.222,2.07 -0.269,2.32 -0.039,0.211 -0.371,0.379 -0.543,0.453 -0.067,0.027 -0.114,0.086 -0.133,0.152 l -1,3.332 c -0.027,0.098 -0.113,0.168 -0.215,0.176 -0.504,0.031 -1.953,0.098 -2.098,-0.191 -0.144,-0.297 -0.257,-2.571 -0.289,-3.25 -0.007,-0.113 -0.086,-0.207 -0.199,-0.231 l -0.832,-0.156 c -0.148,-0.031 -0.289,0.082 -0.289,0.238 l -0.008,1.157 c 0,0.14 -0.121,0.25 -0.262,0.242 l -0.781,-0.063 c -0.058,-0.004 -0.109,-0.027 -0.152,-0.07 -0.211,-0.203 -0.867,-0.871 -0.926,-1.227" /><path
         id="path32"
         style="fill:#3b393d;fill-opacity:1;fill-rule:nonzero;stroke:none"
         d="m 418.027,628.488 -4.203,4.489 c -0.136,0.144 -0.398,0.078 -0.418,-0.106 l -0.758,-7.461 c -0.011,-0.113 -0.128,-0.195 -0.257,-0.18 l -4.149,0.422 c -0.074,0.008 -0.148,-0.019 -0.199,-0.066 l -3.512,-3.469 c -0.035,-0.031 -0.054,-0.07 -0.058,-0.117 l -0.227,-2.25 c -0.004,-0.023 0,-0.051 0.008,-0.074 l 0.809,-2.5 c 0.003,-0.024 0.007,-0.043 0.007,-0.067 l -0.265,-4.32 c -0.004,-0.07 -0.047,-0.133 -0.117,-0.168 l -5.422,-2.551 c -0.008,-0.004 -0.012,-0.004 -0.02,-0.007 -0.223,-0.129 -5.207,-2.969 -5.269,-3.583 -0.059,-0.601 7.738,-4.484 8.386,-4.804 0.028,-0.012 0.059,-0.024 0.09,-0.024 l 2.981,-0.304 c 0.23,-0.024 0.296,-0.293 0.093,-0.391 l -5.586,-2.66 c -0.043,-0.024 -0.093,-0.031 -0.14,-0.024 l -6.031,0.614 c -0.211,0.019 -0.34,-0.192 -0.204,-0.336 0.782,-0.852 2.653,-2.805 3.485,-3.016 0.949,-0.234 2.582,-2.312 2.922,-2.758 0.043,-0.05 0.105,-0.086 0.175,-0.093 l 5.114,-0.52 9.179,-0.934 c 0.11,-0.011 0.2,-0.085 0.215,-0.183 l 1.449,-8.543 c 0,-0.008 0.004,-0.012 0.004,-0.02 l 1.442,-5.336 c 0.008,-0.023 0.008,-0.05 0.004,-0.074 -0.055,-0.336 -0.45,-2.804 -0.535,-5.301 -0.075,-2.128 1.058,-1.394 1.531,-1 0.109,0.094 0.289,0.071 0.371,-0.046 L 422,566.363 c 0.105,-0.144 -0.023,-0.332 -0.223,-0.308 l -2.089,0.211 c -0.083,0.007 -0.165,-0.024 -0.211,-0.078 l -2.844,-3.348 c -0.094,-0.11 -0.043,-0.266 0.097,-0.32 l 2.434,-0.934 c 0.059,-0.023 0.121,-0.023 0.18,-0.008 l 2.187,0.699 c 0.164,0.055 0.34,-0.066 0.324,-0.218 l -0.277,-2.727 c -0.008,-0.051 -0.031,-0.098 -0.074,-0.133 l -2.848,-2.293 c -0.039,-0.031 -0.066,-0.07 -0.074,-0.117 l -1.285,-7.371 c -0.008,-0.027 -0.004,-0.055 0.004,-0.082 l 3.465,-11.969 c 0.015,-0.054 0.054,-0.101 0.113,-0.133 l 6.555,-3.445 c 0.058,-0.031 0.101,-0.082 0.117,-0.141 0.14,-0.566 0.949,-3.539 1.879,-0.894 0.976,2.777 6.324,12.629 6.808,13.516 0.024,0.043 0.059,0.074 0.106,0.093 0.621,0.254 4.922,2.024 5.621,2.246 0.723,0.235 4.289,3.688 4.57,3.961 0.012,0.012 0.028,0.02 0.039,0.032 l 4.207,2.539 c 0.028,0.015 0.055,0.027 0.09,0.035 l 10.27,1.629 c 0.027,0.004 0.05,0.011 0.074,0.023 l 4.633,2.289 c 0.078,0.039 0.121,0.11 0.117,0.184 l -0.336,7.133 c -0.004,0.05 -0.027,0.097 -0.066,0.136 l -2.708,2.559 c -0.035,0.031 -0.054,0.07 -0.062,0.117 l -0.688,4.703 c -0.019,0.164 0.172,0.281 0.34,0.203 l 5.739,-2.558 c 0.148,-0.071 0.324,0.015 0.339,0.16 l 0.305,3.004 c 0.012,0.086 -0.047,0.172 -0.14,0.211 -0.524,0.211 -2.118,0.929 -1.141,1.5 0.957,0.554 2.258,0.898 2.691,1 0.09,0.023 0.153,0.086 0.164,0.168 0.094,0.574 0.442,2.84 0.328,3.265 -0.125,0.461 0.395,3.387 0.458,3.731 0.003,0.019 0.003,0.043 0,0.062 l -0.622,3.266 c -0.011,0.062 -0.058,0.117 -0.125,0.152 l -1.402,0.688 c -0.168,0.082 -0.168,0.293 0.004,0.367 l 1.445,0.613 c 0.035,0.02 0.075,0.024 0.114,0.024 0.425,-0.02 3.023,-0.102 3.082,0.476 0.058,0.574 -0.989,2.332 -1.161,2.617 -0.015,0.028 -0.039,0.051 -0.062,0.067 -0.27,0.191 -1.828,1.316 -1.785,1.746 0.043,0.391 0.324,1.949 0.422,2.477 0.015,0.101 -0.051,0.199 -0.164,0.234 l -1.813,0.562 c -0.148,0.043 -0.211,0.196 -0.133,0.309 l 3.875,5.527 c 0.012,0.02 0.02,0.035 0.028,0.059 l 1.136,4.109 c 0.004,0.016 0.008,0.032 0.016,0.043 l 2.906,5.039 c 0.016,0.024 0.035,0.047 0.059,0.063 l 8.062,5.89 c 0.063,0.043 0.094,0.114 0.082,0.184 l -0.953,5.996 c -0.015,0.102 -0.117,0.184 -0.234,0.184 l -5.645,0.125 c -0.054,0 -0.109,-0.016 -0.152,-0.047 l -10.633,-7.754 c -0.176,-0.129 -0.441,0.023 -0.387,0.219 l 2.051,7.14 c 0.016,0.059 0.004,0.118 -0.035,0.168 l -1.812,2.387 c -0.098,0.133 -0.317,0.129 -0.403,-0.004 -0.64,-0.965 -2.73,-4.039 -3.351,-4.109 -0.649,-0.074 -2.25,0.07 -2.633,0.109 -0.059,0.004 -0.106,0.027 -0.149,0.059 l -3.222,2.773 c -0.039,0.035 -0.09,0.059 -0.145,0.063 l -2.687,0.273 c -0.219,0.024 -0.297,0.274 -0.114,0.379 l 2.852,1.66 c 0.059,0.031 0.129,0.043 0.195,0.024 0.875,-0.223 6.871,-1.711 7.641,-0.758 0.742,0.914 5.062,2.969 6,3.41 0.105,0.051 0.148,0.156 0.105,0.254 l -1.796,4.031 c -0.036,0.074 -0.11,0.125 -0.204,0.137 l -1.671,0.168 c -0.098,0.011 -0.18,0.07 -0.207,0.152 l -1.336,3.918 c -0.012,0.035 -0.039,0.07 -0.071,0.098 l -6.785,5.531 c -0.035,0.031 -0.082,0.051 -0.129,0.055 -0.703,0.09 -6.105,0.765 -7.133,0.722 -1.011,-0.043 -4.687,-3.34 -5.242,-3.836 -0.043,-0.043 -0.066,-0.097 -0.062,-0.152 l 0.187,-3.066 c 0.008,-0.114 -0.086,-0.203 -0.215,-0.215 l -5.168,-0.34 c -0.148,-0.008 -0.273,0.102 -0.257,0.234 l 0.304,3.016 c 0.016,0.156 -0.164,0.277 -0.328,0.219 l -3.183,-1.086 c -0.024,-0.008 -0.047,-0.012 -0.075,-0.012 l -4.199,-0.156 c -0.16,-0.008 -0.266,-0.153 -0.199,-0.285 l 1.34,-2.836 c 0.019,-0.039 0.047,-0.071 0.086,-0.094 l 4.429,-2.731 c 0.082,-0.05 0.121,-0.14 0.098,-0.222 l -0.504,-1.774 c -0.016,-0.058 -0.062,-0.105 -0.125,-0.132 l -4.406,-1.762 c -0.129,-0.051 -0.281,0.004 -0.328,0.121 l -1.485,3.508 c -0.023,0.058 -0.074,0.101 -0.136,0.125 l -3.168,1.183 c -0.129,0.047 -0.278,-0.011 -0.317,-0.129 l -1.437,-4.132 c -0.02,-0.059 -0.008,-0.121 0.031,-0.176 0.367,-0.488 2.16,-3 0.371,-2.817 -1.769,0.18 -4.668,4.895 -5.273,5.911 -0.063,0.101 -0.211,0.144 -0.328,0.089 l -3.309,-1.543 c -0.066,-0.031 -0.109,-0.089 -0.121,-0.156 l -0.645,-4.738 c -0.023,-0.18 -0.285,-0.242 -0.418,-0.098" /><path
         id="path34"
         style="fill:#3b393d;fill-opacity:1;fill-rule:nonzero;stroke:none"
         d="m 396.152,357.402 -4.101,3.618 c -0.063,0.054 -0.086,0.132 -0.063,0.207 0.149,0.468 0.672,2.269 0.36,3.808 -0.34,1.664 -1.383,4.235 -1.52,4.563 -0.008,0.023 -0.023,0.043 -0.043,0.062 l -1.355,1.449 c -0.059,0.063 -0.071,0.149 -0.035,0.219 l 3.105,6.035 c 0.008,0.02 0.02,0.035 0.035,0.051 l 2.602,2.699 c 0.015,0.016 0.031,0.028 0.051,0.039 l 8.238,4.524 c 0.015,0.008 0.027,0.015 0.039,0.027 l 5.941,5.024 c 0.012,0.007 0.02,0.015 0.028,0.023 l 5.765,6.742 c 0.004,0.004 0.008,0.008 0.008,0.008 l 6.488,6.629 c 0.004,0.004 0.012,0.008 0.02,0.016 0.262,0.21 5.961,4.847 6.961,7.691 1.023,2.91 5.488,11.019 5.242,12.156 -0.25,1.137 -1.859,3.203 -2.352,3.731 -0.492,0.523 -5.195,2.59 -6.589,3.207 -1.192,0.527 -3.368,0.461 -3.981,0.429 -0.098,-0.004 -0.191,0.047 -0.234,0.125 l -1.43,2.664 c -0.019,0.036 -0.051,0.067 -0.09,0.09 l -3.554,2.004 c -0.09,0.055 -0.211,0.043 -0.29,-0.019 -0.375,-0.309 -1.484,-1.153 -2.367,-1.063 -0.875,0.09 -3.136,0.528 -3.972,0.692 -0.161,0.031 -0.243,0.191 -0.161,0.308 0.301,0.457 1.012,1.422 1.883,1.926 1.16,0.676 3.086,1.75 2.598,2.273 -0.484,0.516 -4.359,3.657 -4.524,3.789 -0.003,0.004 -0.007,0.004 -0.007,0.004 l -3.399,3.121 c -0.058,0.055 -0.148,0.079 -0.23,0.063 l -2.883,-0.574 c -0.086,-0.02 -0.18,0.008 -0.238,0.066 l -2.364,2.36 c -0.011,0.011 -0.023,0.023 -0.031,0.039 l -2.164,3.336 c -0.016,0.027 -0.039,0.05 -0.066,0.066 -0.301,0.191 -2.094,1.344 -3.043,1.875 -1.032,0.582 -3.246,2.074 -4.129,2.32 -0.817,0.231 -5.028,0.535 -5.68,0.582 -0.055,0.004 -0.109,0.028 -0.148,0.059 l -2.008,1.664 c -0.067,0.055 -0.168,0.074 -0.254,0.043 l -5.09,-1.777 c -0.035,-0.008 -0.062,-0.028 -0.086,-0.051 -0.277,-0.266 -2.09,-1.992 -3.281,-2.164 -1.129,-0.164 -2.391,-0.313 -2.699,-0.348 -0.043,-0.004 -0.09,0.004 -0.133,0.02 l -3.817,1.593 c -0.082,0.035 -0.175,0.028 -0.246,-0.023 -0.476,-0.328 -2.351,-1.484 -2.968,0.234 -0.657,1.836 0.238,3.512 0.371,3.742 0.008,0.02 0.015,0.04 0.019,0.059 l 0.813,4.582 c 0.019,0.117 -0.078,0.231 -0.215,0.242 l -8.563,0.871 c -0.175,0.02 -0.273,0.188 -0.187,0.317 l 2.586,3.855 c 0.012,0.016 0.019,0.035 0.027,0.055 l 0.449,1.504 c 0.043,0.144 -0.105,0.285 -0.277,0.262 l -4.359,-0.629 c -0.18,-0.024 -0.254,-0.211 -0.133,-0.336 0.445,-0.453 0.945,-1.282 -1.715,-1.012 -3.602,0.367 -4.894,0.184 -5.207,0.691 -0.289,0.473 -1.66,5.875 -1.848,6.61 -0.011,0.054 0,0.109 0.032,0.152 0.418,0.59 3.32,4.699 3.031,5.172 -0.285,0.457 1.383,0.98 1.695,1.074 0.035,0.012 0.07,0.012 0.106,0.008 l 4.918,-0.5 c 0.046,-0.004 0.097,0.004 0.136,0.023 l 3.66,1.754 c 0.067,0.032 0.141,0.032 0.211,0.008 l 7.672,-2.941 c 0.067,-0.028 0.114,-0.074 0.137,-0.137 l 1.988,-5.734 c 0.047,-0.129 0.215,-0.192 0.348,-0.125 l 2.301,1.125 c 0.074,0.035 0.121,0.105 0.117,0.183 -0.039,0.75 -0.234,4.688 -0.063,6.387 0.196,1.883 3.938,4.676 3.938,4.676 l 3.707,2.765 c 0.019,0.02 0.039,0.039 0.055,0.063 l 2.605,4.43 c 0.008,0.015 0.02,0.031 0.035,0.046 l 4.594,4.262 c 0,0 0.008,0.008 0.016,0.012 0.144,0.164 2.89,3.207 3.828,3.726 0.765,0.43 3.898,1.516 5.152,1.946 0.195,0.066 0.391,-0.11 0.313,-0.278 l -0.848,-1.832 c -0.078,-0.168 0.109,-0.339 0.305,-0.281 l 6.304,1.988 c 0.024,0.008 0.043,0.02 0.067,0.032 l 1.328,0.941 c 0.109,0.078 0.117,0.227 0.012,0.313 l -1.969,1.628 c -0.012,0.008 -0.02,0.02 -0.028,0.032 l -2.48,2.98 c -0.062,0.074 -0.062,0.172 -0.004,0.246 0.277,0.325 1.047,1.188 1.484,1.145 l 4.606,-0.473 c 0.051,-0.004 0.102,-0.023 0.141,-0.055 l 5.73,-4.593 c 0.063,-0.051 0.148,-0.071 0.227,-0.051 l 3.429,0.816 c 0.102,0.028 0.172,0.11 0.168,0.203 l -0.062,2.571 c -0.004,0.082 -0.059,0.152 -0.145,0.187 l -3.441,1.395 c -0.059,0.019 -0.106,0.062 -0.125,0.113 l -0.539,1.211 c -0.016,0.027 -0.02,0.055 -0.02,0.078 l 0.098,6.223 c 0,0.047 -0.02,0.094 -0.055,0.133 l -6.281,6.882 c -0.031,0.036 -0.051,0.079 -0.055,0.122 l -0.652,7.648 c -0.004,0.047 -0.027,0.094 -0.066,0.129 l -4.305,3.926 c -0.106,0.093 -0.281,0.086 -0.367,-0.024 l -3.903,-4.933 c -0.105,-0.133 -0.332,-0.114 -0.41,0.031 l -1.496,2.676 c -0.012,0.019 -0.019,0.039 -0.023,0.062 l -0.645,4.067 c -0.012,0.058 -0.047,0.113 -0.105,0.144 l -6.407,3.934 c -0.011,0.008 -0.019,0.011 -0.027,0.015 l -4.039,1.883 c -0.145,0.07 -0.316,-0.004 -0.344,-0.144 l -1.207,-6.719 c 0,-0.004 0,-0.012 0,-0.02 l -0.449,-7.98 c -0.004,-0.035 -0.016,-0.07 -0.039,-0.102 l -2.899,-3.906 c -0.011,-0.019 -0.023,-0.039 -0.031,-0.062 -0.109,-0.422 -1.14,-4.516 -0.582,-5.778 0.442,-0.98 0.094,-2.836 -0.117,-3.738 -0.043,-0.188 -0.328,-0.219 -0.441,-0.051 l -3.114,4.731 c -0.027,0.046 -0.039,0.101 -0.023,0.152 0.109,0.402 0.621,2.238 1.066,3.457 0.41,1.125 0.09,2.215 -0.039,2.578 -0.027,0.078 -0.105,0.137 -0.195,0.149 l -9.07,1.23 c -0.075,0.012 -0.141,0.055 -0.18,0.113 l -1.438,2.336 c -0.039,0.067 -0.117,0.11 -0.203,0.114 l -4.89,0.203 c -0.125,0.004 -0.231,0.093 -0.235,0.207 -0.027,0.847 -0.164,4.164 -0.593,4.621 -0.493,0.527 -2.872,2.195 -1.829,3.515 1.047,1.325 4.067,4.188 4.914,5.371 0.801,1.118 3.098,4.2 3.356,4.543 0.016,0.024 0.035,0.04 0.059,0.055 0.367,0.227 3.531,2.219 4.656,3.149 1.144,0.949 3.281,1.796 3.453,1.863 0.008,0.004 0.016,0.008 0.023,0.012 l 4.547,2.351 c 0.035,0.02 0.063,0.043 0.082,0.078 l 2.934,4.735 c 0.051,0.082 0.027,0.187 -0.055,0.254 -0.781,0.628 -4.625,3.703 -5.109,3.753 -0.539,0.055 -0.352,-3.457 -2.051,-4.078 -1.348,-0.488 -3.883,-1.359 -4.871,-1.699 -0.176,-0.058 -0.363,0.078 -0.324,0.238 l 0.898,3.961 v 0 c 0.004,0.032 0.117,1.254 -0.625,1.016 -0.754,-0.238 -0.812,-2.613 -1.891,-2.504 -1.082,0.109 -1.367,2.68 -1.304,3.305 0.058,0.574 -0.723,1.754 -0.867,1.965 -0.012,0.019 -0.024,0.043 -0.028,0.07 -0.07,0.344 -0.617,3.008 -0.773,4.801 -0.168,1.918 -2.547,3.59 -3.086,3.644 -0.492,0.051 -2.574,-2.34 -2.961,-2.793 -0.039,-0.047 -0.055,-0.105 -0.043,-0.164 l 1.117,-4.769 c 0.004,-0.012 0.008,-0.02 0.012,-0.028 l 1.691,-4.363 c 0.02,-0.055 0.016,-0.113 -0.015,-0.16 l -1.485,-2.465 -0.539,-0.883 c -0.121,-0.199 -0.472,-0.101 -0.449,0.125 l 0.066,0.633 c 0.012,0.117 -0.093,0.223 -0.23,0.23 l -3.367,0.196 -5.274,0.539 c -0.082,0.008 -0.152,0.051 -0.191,0.117 l -1.106,1.957 c -0.039,0.074 -0.128,0.121 -0.222,0.121 l -3.582,-0.082 c -0.059,0 -0.117,-0.019 -0.16,-0.058 l -2.27,-2.02 c -0.043,-0.035 -0.101,-0.059 -0.16,-0.059 -0.457,-0.007 -2.445,0 -3.672,0.543 -1.289,0.571 -3.922,1.688 -4.312,1.852 -0.032,0.012 -0.059,0.031 -0.082,0.055 l -2.719,2.906 c -0.024,0.023 -0.059,0.047 -0.094,0.058 l -6.926,2.586 c -0.019,0.008 -0.043,0.012 -0.066,0.016 l -6.395,0.652 c -0.129,0.012 -0.226,0.114 -0.215,0.231 l 0.149,1.453 c 0.016,0.164 -0.18,0.285 -0.348,0.211 l -2.07,-0.899 c -0.117,-0.046 -0.262,-0.007 -0.32,0.098 l -1.875,3.133 c -0.024,0.039 -0.063,0.07 -0.106,0.09 l -7.043,3.16 c -0.109,0.051 -0.246,0.019 -0.308,-0.074 l -3.274,-4.949 c -0.035,-0.055 -0.101,-0.09 -0.176,-0.098 l -3.992,-0.344 c -0.07,-0.008 -0.144,0.016 -0.195,0.063 -0.524,0.464 -3.481,3.015 -5.738,3.535 -2.387,0.547 -10.329,2.386 -10.985,2.539 -0.027,0.004 -0.054,0.015 -0.078,0.031 -0.562,0.352 -7.605,4.723 -10.371,5.004 -2.77,0.281 -10.293,-3.34 -10.891,-3.633 -0.023,-0.012 -0.047,-0.027 -0.066,-0.047 -0.293,-0.312 -2.867,-3.07 -3.481,-4.054 -0.617,-0.989 1.594,-6.25 1.833,-6.805 0.011,-0.031 0.031,-0.059 0.058,-0.082 l 3.75,-3.07 c 0.156,-0.129 0.067,-0.348 -0.141,-0.36 l -3.792,-0.164 c -0.032,0 -0.059,-0.008 -0.086,-0.015 l -6.332,-2.536 c -0.137,-0.054 -0.18,-0.207 -0.086,-0.312 l 2.953,-3.371 c 0.043,-0.051 0.109,-0.082 0.179,-0.086 l 5.387,-0.266 c 0.207,-0.008 0.309,-0.23 0.16,-0.355 l -6.871,-5.946 c -0.078,-0.066 -0.09,-0.168 -0.035,-0.253 l 4.145,-6.11 c 0.019,-0.035 0.054,-0.062 0.097,-0.082 l 8.418,-3.832 c 0.028,-0.016 0.059,-0.019 0.09,-0.023 l 11.652,-0.871 c 0.028,0 0.055,0 0.082,0.007 l 10.899,2.61 c 0.043,0.011 0.09,0.011 0.133,0 l 6.39,-1.684 c 0.067,-0.015 0.121,-0.055 0.149,-0.109 l 11.051,-18.86 c 0.039,-0.074 0.125,-0.121 0.218,-0.117 l 3.864,0.043 c 0.105,0.004 0.199,-0.055 0.234,-0.144 l 2.949,-7.551 c 0.016,-0.043 0.02,-0.086 0.004,-0.129 l -1.781,-5.199 c -0.004,-0.02 -0.008,-0.043 -0.008,-0.063 l 0.078,-6.332 c 0,-0.008 0,-0.015 0,-0.023 0.055,-0.344 1.199,-7.957 1.457,-8.914 0.258,-0.946 8.317,-11.52 8.906,-12.289 0.02,-0.028 0.051,-0.051 0.086,-0.071 l 11.332,-5.386 c 0.047,-0.024 0.082,-0.055 0.106,-0.098 l 2.25,-4.098 c 0.012,-0.027 0.019,-0.054 0.019,-0.082 0.024,-0.496 0.25,-5.058 0.93,-5.129 0.699,-0.07 3.988,-1.75 4.184,-1.847 0.007,-0.004 0.011,-0.008 0.019,-0.012 l 7.645,-3.148 c 0.011,-0.004 0.023,-0.008 0.035,-0.016 l 6.832,-4.176 c 0.004,0 0.008,-0.004 0.008,-0.004 l 5.152,-2.734 c 0.02,-0.008 0.031,-0.02 0.047,-0.031 l 2.582,-2.282 c 0.113,-0.101 0.086,-0.273 -0.063,-0.332 l -1.89,-0.781 c -0.141,-0.059 -0.176,-0.219 -0.07,-0.32 l 4.417,-4.391 2.739,-2.922 c 0.035,-0.039 0.054,-0.082 0.054,-0.129 l 0.243,-6.379 c 0,-0.05 -0.02,-0.101 -0.055,-0.136 l -4.535,-4.625 c -0.051,-0.047 -0.071,-0.117 -0.051,-0.18 0.199,-0.758 1.504,-5.523 2.574,-6.508 1.141,-1.047 7.223,-8.035 7.512,-8.367 0.008,-0.008 0.016,-0.016 0.023,-0.023 0.321,-0.274 6.532,-5.598 7.141,-6.586 0.57,-0.926 2.855,-4.262 3.258,-4.852 0.039,-0.055 0.047,-0.125 0.019,-0.183 l -3.941,-8.813 c -0.016,-0.027 -0.02,-0.059 -0.016,-0.09 l 0.907,-10.676 c 0,0 0.437,-4.644 -0.551,-8.988 -0.942,-4.133 -0.707,-8.101 -0.684,-8.469 0,-0.019 0.004,-0.035 0.012,-0.054 l 1.996,-5.239 c 0.004,-0.011 0.008,-0.019 0.016,-0.031 l 3.074,-5.18 c 0.015,-0.023 0.039,-0.046 0.062,-0.066 l 4.825,-3.445 c 0.039,-0.028 0.082,-0.043 0.128,-0.047 l 7.735,-0.789 c 0.223,-0.024 0.344,0.211 0.187,0.351" /><path
         id="path36"
         style="fill:#3b393d;fill-opacity:1;fill-rule:nonzero;stroke:none"
         d="m 383.34,569.012 1.23,-2.824 c 0.016,-0.036 0.043,-0.067 0.075,-0.09 l 2.492,-1.828 c 0.035,-0.028 0.062,-0.059 0.078,-0.098 l 1.551,-3.981 c 0.007,-0.023 0.011,-0.046 0.011,-0.074 -0.015,-0.371 -0.16,-3.297 -0.246,-3.586 -0.086,-0.293 -1.715,-1.629 -1.867,-1.754 -0.008,-0.007 -0.016,-0.011 -0.023,-0.019 l -5.532,-3.391 c -0.086,-0.054 -0.121,-0.156 -0.078,-0.246 l 1.36,-2.937 c 0.039,-0.079 0.125,-0.129 0.218,-0.133 l 5.305,-0.188 c 0.063,-0.004 0.125,-0.027 0.168,-0.066 l 3.184,-2.949 c 0.011,-0.012 0.027,-0.024 0.039,-0.032 l 4.472,-2.707 c 0.016,-0.007 0.032,-0.015 0.047,-0.019 l 3.594,-1.32 c 0.223,-0.082 0.422,0.136 0.281,0.308 l -3.277,3.969 c -0.117,0.141 0,0.336 0.195,0.324 l 1.274,-0.055 c 0.039,0 0.074,-0.007 0.105,-0.023 l 2.727,-1.301 c 0.179,-0.086 0.39,0.051 0.34,0.227 l -1.458,5.265 c -0.011,0.036 -0.031,0.067 -0.058,0.094 l -2.262,2.184 c -0.156,0.152 -0.004,0.386 0.227,0.34 l 4.41,-0.934 c 0.086,-0.02 0.152,-0.074 0.176,-0.145 0.183,-0.488 0.925,-2.335 1.437,-1.464 0.516,0.879 3.578,5.097 4.309,6.101 0.082,0.11 0.023,0.258 -0.121,0.309 l -4.321,1.476 c -0.023,0.008 -0.043,0.016 -0.062,0.032 l -3.879,2.648 -0.008,0.004 c -0.14,0.086 -3.019,1.859 -2.707,2.601 0.258,0.61 1.352,1.032 1.774,1.176 0.101,0.032 0.16,0.121 0.144,0.215 l -0.379,2.418 c 0,0 -0.265,1.563 -0.68,1.074 -0.414,-0.488 -2.929,-2.558 -3.031,-1.754 -0.097,0.801 0.18,1.145 0.942,2.653 0.445,0.89 0.597,1.371 0.652,1.613 0.023,0.117 -0.078,0.234 -0.215,0.246 l -3.887,0.399 c -0.191,0.015 -0.285,0.214 -0.164,0.339 l 0.711,0.758 c 0.059,0.063 0.071,0.153 0.024,0.227 l -1.024,1.711 c -0.074,0.125 -0.261,0.156 -0.375,0.062 l -0.496,-0.406 c -0.082,-0.066 -0.199,-0.074 -0.293,-0.02 l -1.461,0.844 c -0.027,0.016 -0.054,0.039 -0.07,0.067 -0.141,0.195 -0.715,1.031 -0.68,1.351 0.035,0.336 -1.211,2.899 -1.437,3.36 -0.02,0.042 -0.024,0.089 -0.012,0.132 0.082,0.278 0.254,1.422 -2.059,2.578 -2.656,1.329 -4.566,1.629 -4.582,1.469 -0.015,-0.156 0.415,-1.89 0.512,-2.113 0.086,-0.199 2.391,-1.598 2.871,-1.887 0.055,-0.035 0.09,-0.086 0.102,-0.144 l 0.16,-0.883 c 0.012,-0.067 -0.012,-0.129 -0.063,-0.176 l -1.824,-1.621 c -0.113,-0.098 -0.308,-0.07 -0.383,0.059 l -0.343,0.593 c -0.067,0.114 -0.227,0.153 -0.344,0.086 l -1.293,-0.718 c -0.168,-0.09 -0.391,0.027 -0.371,0.199 l 0.199,1.968 c 0,0.008 0,0.016 0.004,0.024 l 0.527,2.297 c 0.008,0.043 0.004,0.09 -0.019,0.133 l -1.301,2.32 c -0.031,0.055 -0.09,0.098 -0.16,0.113 l -1.957,0.43 c -0.082,0.016 -0.164,-0.004 -0.223,-0.051 l -1.332,-1.121 c -0.023,-0.02 -0.039,-0.039 -0.051,-0.066 l -1.351,-2.848 c -0.016,-0.027 -0.02,-0.055 -0.02,-0.082 l 0.133,-3.379 c 0,-0.02 0.004,-0.039 0.012,-0.055 0.097,-0.281 0.914,-2.625 -0.274,-1.957 -1.129,0.637 -1.464,1.446 -1.523,1.606 -0.008,0.019 -0.012,0.039 -0.012,0.054 l -0.125,2.86 c 0,0.023 0.004,0.051 0.016,0.074 l 1.531,3.945 c 0.008,0.024 0.024,0.047 0.043,0.067 l 1.227,1.234 c 0.136,0.137 0.011,0.356 -0.2,0.348 l -2.796,-0.106 c -0.032,0 -0.063,-0.007 -0.09,-0.019 l -4.844,-2.016 c -0.074,-0.031 -0.121,-0.094 -0.133,-0.164 -0.09,-0.828 -0.66,-5.926 -0.695,-6.266 -0.028,-0.265 1.176,-1.976 1.816,-2.863 0.121,-0.172 -0.07,-0.375 -0.285,-0.301 v 0 c -0.226,0.079 -0.422,-0.156 -0.262,-0.324 l 1.977,-2.066 c 0.008,-0.008 0.012,-0.012 0.019,-0.02 0.196,-0.164 3.504,-2.937 5.133,-3.105 1.5,-0.153 6.457,0.48 7.512,0.617 0.113,0.016 0.199,0.102 0.195,0.203 l -0.015,1.559 c 0,0.175 0.23,0.269 0.386,0.156 l 1.032,-0.734 c 0.031,-0.024 0.058,-0.055 0.074,-0.09" /><path
         id="path38"
         style="fill:#3b393d;fill-opacity:1;fill-rule:nonzero;stroke:none"
         d="m 593.188,319.566 c -0.063,-0.027 -0.137,-0.023 -0.204,0.004 -0.605,0.297 -3.75,1.856 -3.793,2.336 -0.039,0.422 0.262,1.332 0.391,1.703 0.035,0.098 0.004,0.204 -0.074,0.27 -0.281,0.226 -0.906,0.773 -0.903,1.16 0.008,0.496 0.172,1.871 0.383,2.031 0.164,0.125 0.719,0.297 0.934,0.36 0.055,0.015 0.101,0.05 0.133,0.101 l 1.343,2.086 c 0.028,0.039 0.04,0.086 0.04,0.133 l -0.02,4.664 c 0,0.109 0.07,0.203 0.176,0.234 l 1.804,0.54 3.594,1.136 c 0.055,0.016 0.102,0.051 0.133,0.098 l 0.348,0.535 c 0.066,0.106 0.043,0.25 -0.059,0.324 l -0.445,0.34 c -0.082,0.059 -0.117,0.164 -0.09,0.258 l 0.234,0.875 c 0.028,0.098 0.117,0.172 0.219,0.18 l 0.762,0.054 c 0.047,0.004 0.094,0.024 0.133,0.051 l 1.414,1.113 c 0.097,0.078 0.234,0.071 0.324,-0.015 l 2.859,-2.867 c 0.059,-0.059 0.082,-0.145 0.063,-0.227 l -0.61,-2.703 c -0.015,-0.074 -0.066,-0.141 -0.14,-0.168 l -2.828,-1.219 c -0.067,-0.031 -0.118,-0.086 -0.137,-0.152 l -2.524,-8.344 c -0.003,-0.016 -0.011,-0.031 -0.019,-0.047 l -2.375,-4.32 c -0.027,-0.047 -0.066,-0.086 -0.117,-0.106 l -0.949,-0.418" /><path
         id="path40"
         style="fill:#3b393d;fill-opacity:1;fill-rule:nonzero;stroke:none"
         d="m 341.199,584.629 c -0.148,0.008 -0.265,-0.102 -0.246,-0.231 0.16,-1.023 0.75,-4.878 0.582,-5 -0.195,-0.14 -1.539,-2.011 -1.789,-0.875 -0.25,1.133 0.047,3.43 -0.117,4.188 -0.125,0.57 -0.844,1.316 -1.199,1.652 -0.098,0.098 -0.274,0.098 -0.364,-0.004 l -0.765,-0.851 c -0.016,-0.02 -0.028,-0.039 -0.035,-0.059 -0.071,-0.172 -0.453,-1.015 -0.922,-0.828 -0.528,0.215 -1.246,-0.891 -1.582,-0.637 -0.282,0.207 -0.145,1.676 -0.086,2.172 0.012,0.102 -0.059,0.192 -0.164,0.223 -0.598,0.18 -2.438,0.723 -2.594,0.652 -0.145,-0.066 -0.516,-1.023 -0.691,-1.504 -0.051,-0.136 -0.243,-0.183 -0.372,-0.089 -0.296,0.21 -0.718,0.578 -0.644,0.921 0.043,0.211 0.246,0.571 0.473,0.926 0.125,0.199 -0.161,0.41 -0.364,0.27 l -1.261,-0.895 c -0.024,-0.015 -0.047,-0.027 -0.075,-0.035 l -3.535,-1.016 c -0.129,-0.035 -0.191,-0.16 -0.14,-0.269 l 0.449,-0.969 c 0.055,-0.113 -0.016,-0.242 -0.153,-0.273 l -1.332,-0.309 c -0.089,-0.023 -0.16,-0.094 -0.168,-0.18 l -0.128,-1.25 c -0.008,-0.101 0.066,-0.199 0.179,-0.226 l 2.528,-0.613 c 0,0 2.082,-0.411 1.746,-0.747 -0.289,-0.285 -2.285,-0.585 -2.879,-0.671 -0.102,-0.012 -0.176,-0.082 -0.192,-0.168 l -0.269,-1.661 c -0.016,-0.097 0.051,-0.195 0.16,-0.23 l 2.66,-0.859 c 0.02,-0.004 0.039,-0.008 0.063,-0.012 l 5.402,-0.395 c 0.102,-0.007 0.184,-0.066 0.215,-0.152 l 0.176,-0.492 c 0.05,-0.145 -0.082,-0.281 -0.25,-0.266 l -5.891,0.602 c -0.039,0.004 -0.078,0 -0.113,-0.016 l -2.289,-0.793 c -0.164,-0.058 -0.196,-0.25 -0.055,-0.351 l 3.652,-2.688 c 0.032,-0.023 0.071,-0.039 0.11,-0.047 l 2.668,-0.515 c 0.097,-0.02 0.175,-0.09 0.191,-0.176 l 0.262,-1.531 c 0.015,-0.106 0.121,-0.184 0.238,-0.184 l 5.438,-0.074 c 0.031,0 0.062,0.004 0.093,0.015 l 2.621,0.954 c 0.039,0.015 0.075,0.039 0.102,0.07 l 0.328,0.422 c 0.141,0.175 0.457,0.07 0.438,-0.145 l -0.024,-0.207 c -0.012,-0.109 0.078,-0.211 0.203,-0.23 l 1.766,-0.27 c 0.027,-0.004 0.059,-0.015 0.086,-0.027 l 2.148,-1.16 c 0.071,-0.036 0.153,-0.043 0.223,-0.016 l 2.238,0.863 c 0.164,0.063 0.188,0.254 0.043,0.352 -0.48,0.328 -1.32,0.93 -1.304,1.117 0.023,0.195 0.621,0.449 0.925,0.566 0.098,0.036 0.211,0.012 0.282,-0.058 0.175,-0.184 0.535,-0.477 0.824,-0.238 0.328,0.269 0.84,1.503 1.004,1.921 0.035,0.082 0.004,0.176 -0.078,0.231 l -2.125,1.527 c -0.04,0.028 -0.086,0.047 -0.137,0.047 l -1.695,0.129 c -0.122,0.012 -0.219,0.098 -0.223,0.207 l -0.145,3.684 -0.203,4.425 c -0.004,0.059 -0.035,0.114 -0.086,0.153 l -2.847,2.101 c -0.039,0.032 -0.09,0.047 -0.141,0.051 l -0.844,0.051" /><path
         id="path42"
         style="fill:#3b393d;fill-opacity:1;fill-rule:nonzero;stroke:none"
         d="m 386.609,625.91 c 0.047,0.285 1.598,2.531 2.457,3.754 0.129,0.188 -0.125,0.406 -0.339,0.289 l -4.043,-2.273 c -0.051,-0.032 -0.09,-0.078 -0.102,-0.133 l -0.734,-3.336 c -0.02,-0.086 -0.102,-0.152 -0.203,-0.16 l -3.7,-0.328 c -0.152,-0.016 -0.281,0.097 -0.269,0.23 l 0.035,0.324 c 0.019,0.2 -0.262,0.313 -0.414,0.168 l -1.219,-1.152 c -0.07,-0.066 -0.183,-0.086 -0.277,-0.043 l -1.629,0.715 c -0.129,0.058 -0.176,0.199 -0.098,0.305 l 1.707,2.253 c 0.028,0.036 0.063,0.063 0.11,0.079 l 0.668,0.222 c 0.246,0.082 0.168,0.403 -0.098,0.403 h -1.223 c -0.05,0 -0.101,-0.012 -0.14,-0.039 l -2.035,-1.352 c -0.071,-0.047 -0.168,-0.055 -0.247,-0.02 l -1.812,0.774 c -0.191,0.078 -0.184,0.316 0.008,0.379 l 3.984,1.32 c 0.02,0.008 0.035,0.016 0.055,0.024 l 0.105,0.066 c 0.223,0.137 0.035,0.445 -0.222,0.367 -1.446,-0.426 -3.375,-0.953 -3.774,-0.848 -0.359,0.094 -0.691,0.122 -0.914,0.129 -0.148,0 -0.262,0.121 -0.234,0.246 l 0.336,1.793 c 0.004,0.02 0.011,0.039 0.019,0.055 l 0.848,1.531 c 0.058,0.106 0,0.239 -0.125,0.286 l -0.613,0.234 c -0.059,0.023 -0.122,0.023 -0.18,0.008 l -1.152,-0.371 c -0.086,-0.028 -0.184,-0.008 -0.25,0.046 -0.235,0.196 -0.727,0.661 -0.512,0.926 0.211,0.262 -0.531,0.496 -0.895,0.594 -0.113,0.027 -0.183,0.121 -0.175,0.223 l 0.07,0.691 c 0.004,0.047 0.027,0.094 0.07,0.125 l 2.785,2.387 c 0.051,0.043 0.117,0.062 0.188,0.058 l 2.879,-0.242 c 0,0 0.023,-0.004 0.035,-0.008 l 2.902,-0.632 c 0.223,-0.047 0.379,0.179 0.231,0.332 l -1.168,1.214 c -0.086,0.086 -0.078,0.219 0.015,0.293 0.145,0.106 0.313,0.293 0.309,0.575 -0.016,0.476 -0.684,1.656 -0.656,1.918 0.023,0.226 1.48,0.109 1.859,0.074 0.059,-0.004 0.109,-0.028 0.152,-0.067 l 2.981,-2.73 c 0.004,-0.008 0.012,-0.012 0.019,-0.016 l 1.719,-1.285 c 0.195,-0.148 0.473,0.035 0.367,0.238 l -1.117,2.141 c -0.012,0.02 -0.019,0.043 -0.019,0.066 -0.02,0.204 -0.11,1.196 -0.008,1.661 0.058,0.261 0.113,0.507 0.156,0.687 0.031,0.145 0.215,0.207 0.356,0.129 l 0.812,-0.453 c 0.164,-0.094 0.371,0.012 0.359,0.18 l -0.16,2.218 c -0.011,0.188 0.246,0.289 0.403,0.157 l 0.308,-0.258 c 0.121,-0.106 0.32,-0.071 0.383,0.066 0.211,0.469 0.656,1.344 1.012,1.344 0.488,0.004 2.945,-0.879 3.113,-1.004 0.137,-0.098 1.637,-2.379 2.262,-3.336 0.105,-0.156 0.371,-0.137 0.433,0.035 l 0.317,0.86 c 0.015,0.047 0.011,0.097 -0.008,0.14 l -1.586,3.391 c -0.074,0.156 0.082,0.316 0.269,0.273 l 3.204,-0.687 c 0.058,-0.012 0.113,-0.043 0.144,-0.09 l 1.465,-1.91 c 0.148,-0.192 0.48,-0.078 0.43,0.144 -0.235,1.047 -0.512,2.524 -0.235,2.563 0.36,0.051 1.18,0.055 1.442,0.055 0.05,0 0.101,-0.012 0.144,-0.043 l 1.688,-1.122 c 0.16,-0.105 0.386,-0.007 0.379,0.168 -0.028,0.551 -0.032,1.434 0.218,1.446 0.336,0.015 4.946,-2.446 5.723,-2.86 0.066,-0.039 0.148,-0.043 0.223,-0.015 0.34,0.136 1.293,0.465 0.394,-0.414 -1.078,-1.051 -2.156,-2.106 -1.926,-2.235 0.211,-0.121 1.891,1.485 2.168,1.746 0.024,0.028 0.055,0.043 0.09,0.055 l 1.821,0.567 c 0.101,0.031 0.214,0 0.281,-0.083 l 2.726,-3.472 c 0.008,-0.008 0.016,-0.016 0.024,-0.024 l 2.254,-2.132 c 0.07,-0.067 0.086,-0.157 0.043,-0.235 l -1.684,-3.07 c -0.019,-0.035 -0.055,-0.07 -0.098,-0.09 l -4.625,-2.141 c -0.05,-0.023 -0.093,-0.066 -0.109,-0.117 -0.086,-0.238 -0.387,-0.937 -0.984,-0.879 -0.571,0.059 -2.696,-0.125 -3.547,-0.203 -0.168,-0.012 -0.262,-0.176 -0.172,-0.308 l 0.625,-0.922 c 0.019,-0.032 0.051,-0.059 0.09,-0.078 0.14,-0.071 0.519,-0.274 0.504,-0.399 -0.012,-0.129 2.703,0.602 3.758,0.891 0.175,0.047 0.351,-0.098 0.304,-0.254 l -0.535,-1.879 c -0.012,-0.043 -0.039,-0.082 -0.082,-0.109 l -4.148,-2.743 c -0.012,-0.007 -0.024,-0.015 -0.032,-0.027 l -2.242,-2.156 c -0.019,-0.02 -0.035,-0.039 -0.047,-0.063 l -0.597,-1.402 c -0.051,-0.121 -0.215,-0.168 -0.34,-0.102 -0.219,0.114 -0.531,0.262 -0.75,0.286 -0.36,0.035 -1.137,-1.047 -0.735,-1.25 0.356,-0.172 -0.308,-1.215 -0.48,-1.473 -0.024,-0.039 -0.063,-0.066 -0.106,-0.086 -0.265,-0.098 -1.222,-0.477 -1.41,-0.773 -0.16,-0.262 -0.097,-0.922 -0.05,-1.243 0.011,-0.105 -0.067,-0.203 -0.184,-0.222 l -2.301,-0.422 c -0.055,-0.012 -0.101,-0.039 -0.137,-0.074 l -0.929,-1.055 c -0.032,-0.035 -0.074,-0.059 -0.121,-0.07 l -1.145,-0.274 c -0.016,-0.004 -0.031,-0.004 -0.051,-0.008 l -0.769,-0.031 c -0.223,-0.012 -0.301,-0.258 -0.117,-0.375 l 1.148,-0.726 c 0.141,-0.09 0.137,-0.274 -0.008,-0.348 l -1.066,-0.563 c -0.121,-0.062 -0.149,-0.207 -0.055,-0.304 l 0.692,-0.742 c 0.039,-0.043 0.058,-0.098 0.054,-0.153 l -0.215,-2.113 -0.203,-1.41 c -0.004,-0.032 -0.015,-0.063 -0.039,-0.086 l -1.222,-1.625 c -0.047,-0.067 -0.133,-0.102 -0.219,-0.09 l -2.52,0.258 c -0.097,0.008 -0.191,-0.035 -0.234,-0.11 l -0.547,-0.953 c -0.027,-0.047 -0.031,-0.101 -0.016,-0.152 l 0.262,-0.742 c 0.027,-0.071 0.008,-0.145 -0.043,-0.196 l -1.812,-1.867 c -0.043,-0.043 -0.063,-0.101 -0.055,-0.16 l 0.176,-1.117 c 0.019,-0.106 0.125,-0.188 0.246,-0.184 0.34,0 0.972,-0.011 1.047,-0.133 0.09,-0.144 0.672,-1.488 0.84,-1.886 0.031,-0.067 0.019,-0.141 -0.032,-0.199 l -1.336,-1.485 c -0.015,-0.015 -0.031,-0.027 -0.047,-0.039 l -1.667,-1.055 c -0.036,-0.023 -0.083,-0.039 -0.129,-0.039 l -1.696,-0.043 c -0.105,-0.004 -0.203,0.055 -0.238,0.141 -0.129,0.305 -0.437,0.996 -0.656,1.145 -0.262,0.171 -2.406,0.753 -2.774,0.851 -0.035,0.012 -0.07,0.016 -0.105,0.008 l -1.656,-0.223 c -0.043,-0.008 -0.09,0 -0.129,0.012 -0.106,0.035 -0.332,0.07 -0.453,-0.234 -0.164,-0.407 -0.497,-0.692 -1.196,-0.407 -0.699,0.282 -1.347,1.036 -2.828,1.399 -1.316,0.32 -2.086,-0.125 -2.242,-0.227 -0.02,-0.011 -0.043,-0.023 -0.066,-0.031 l -2.282,-0.652 c -0.105,-0.032 -0.172,-0.121 -0.156,-0.215 l 0.141,-1.047 c 0.007,-0.039 0.023,-0.074 0.05,-0.106 l 0.735,-0.835 c 0.027,-0.032 0.062,-0.055 0.101,-0.071 l 1.559,-0.558 c 0.012,-0.004 0.023,-0.012 0.035,-0.016 l 1.879,-1.004 c 0.039,-0.023 0.086,-0.031 0.133,-0.031 l 2.14,0.035 c 0.024,0 0.047,0 0.067,0.008 0.375,0.101 3.918,1.07 4.199,1.043 0.266,-0.028 2.672,-0.758 3.281,-0.942 0.086,-0.027 0.149,-0.093 0.164,-0.172 l 0.461,-2.656 c 0.008,-0.043 0.036,-0.086 0.071,-0.117 l 0.961,-0.844 c 0.105,-0.097 0.089,-0.25 -0.032,-0.32 l -3.234,-1.852 c -0.082,-0.046 -0.188,-0.043 -0.27,0.008 l -1.804,1.133 c -0.098,0.063 -0.231,0.051 -0.309,-0.023 -0.336,-0.305 -1.172,-1.059 -1.316,-1.043 -0.18,0.015 -7.504,0.761 -7.481,1.023 0.02,0.18 -0.05,0.883 -0.093,1.313 -0.02,0.156 -0.219,0.242 -0.368,0.164 -0.621,-0.336 -1.918,-1.024 -2.097,-1.004 -0.215,0.023 -2.028,1.66 -2.434,2.031 -0.051,0.051 -0.078,0.113 -0.066,0.176 l 0.539,3.562 c 0,0.024 0,0.047 -0.004,0.071 l -0.535,2.418 c -0.024,0.105 -0.125,0.175 -0.246,0.175 -0.508,-0.011 -1.809,-0.015 -2.075,0.239 -0.332,0.312 -1.925,4.336 -1.925,4.336 0,0 -0.391,0.937 0.089,0.89 0.481,-0.051 1.731,-1.5 2.559,-1.687 0.75,-0.172 3.258,-0.996 3.742,-1.157 0.055,-0.015 0.11,-0.019 0.164,-0.003 l 5.739,1.765 c 0.136,0.043 0.195,0.18 0.125,0.289 -0.344,0.574 -1.274,2.129 -1.258,2.258 0.015,0.156 2.113,1.688 2.351,1.664 0.207,-0.023 1.407,-1.402 1.731,-1.781 0.051,-0.059 0.133,-0.09 0.219,-0.086 l 1.296,0.101 c 0.164,0.012 0.258,0.165 0.188,0.297 l -0.551,0.953 c -0.043,0.075 -0.031,0.165 0.027,0.223 0.278,0.297 1.063,1.152 1.083,1.367 0.019,0.184 0.027,0.832 0.031,1.207 0,0.137 -0.149,0.239 -0.301,0.207 -0.934,-0.191 -3.727,-0.742 -3.699,-0.48 0.027,0.285 0.453,1.945 0.523,2.23 0.008,0.028 0.02,0.051 0.039,0.075 0.192,0.226 1.285,1.558 1.321,1.89 0.031,0.289 0.843,-0.617 1.183,-1.015 0.086,-0.098 0.238,-0.114 0.344,-0.039 l 2.535,1.792 c 0.149,0.102 0.098,0.313 -0.086,0.36 l -1.633,0.453 c -0.039,0.012 -0.082,0.012 -0.121,0.004 l -3.484,-0.656 c -0.067,-0.012 -0.121,-0.047 -0.152,-0.102 l -0.672,-1.098 c -0.004,-0.007 -0.012,-0.015 -0.02,-0.023 -0.18,-0.215 -2.762,-3.25 -3.168,-3.211 -0.351,0.035 -1.879,0.266 -2.363,0.34 -0.086,0.012 -0.172,-0.016 -0.227,-0.078 -0.172,-0.196 -0.605,-0.547 -0.992,0.316 -0.492,1.106 -0.547,2.383 -0.805,2.832 -0.207,0.363 -0.949,1.332 -1.222,1.692 -0.063,0.078 -0.055,0.183 0.015,0.254 l 2.438,2.355 c 0.043,0.039 0.062,0.09 0.058,0.145 l -0.042,0.847 c -0.008,0.125 -0.141,0.223 -0.282,0.203 -0.672,-0.09 -2.422,-0.293 -2.843,-0.125 -0.395,0.16 -0.543,0.719 -0.594,0.981 -0.016,0.086 0.031,0.168 0.113,0.207 l 0.793,0.406 c 0.188,0.094 0.137,0.344 -0.078,0.383 -0.875,0.156 -2.359,0.465 -2.481,0.738 -0.144,0.328 0.403,2.078 0.571,2.598 0.027,0.086 0.117,0.144 0.218,0.144 l 1.629,0.028 c 0.192,0 0.293,0.187 0.184,0.324 -0.414,0.5 -1.168,1.433 -1.238,1.633 -0.09,0.273 -0.575,1.488 0.019,1.371 0.367,-0.071 1.043,-0.332 1.5,-0.524 0.192,-0.078 0.387,0.075 0.324,0.246 l -0.621,1.731 c -0.039,0.101 0.02,0.207 0.129,0.25 0.508,0.184 1.856,0.672 2.004,0.656 0.16,-0.015 0.438,0.086 0.488,0.106 0.004,0 0.008,0.004 0.012,0.004 0.086,0.039 1.145,0.523 1.223,0.718 0.082,0.203 -1.656,1.016 -2.117,1.274 -0.457,0.258 -1.434,1.996 -0.262,1.613 1.176,-0.383 4.309,-1.18 4.332,-1.551 0.023,-0.34 -0.148,-2.566 -0.18,-2.941 0,-0.035 0.008,-0.07 0.024,-0.106 l 1.222,-2.25 c 0.02,-0.031 0.047,-0.062 0.082,-0.082 l 1.657,-1.035 c 0.074,-0.043 0.113,-0.117 0.105,-0.191 l -0.109,-1.074 c 0,-0.004 -0.004,-0.012 -0.004,-0.016 v -1.207 l -0.008,-0.594 c -0.004,-0.058 0.027,-0.117 0.078,-0.16 l 0.227,-0.184 c 0.175,-0.14 0.449,-0.004 0.39,0.196 -0.136,0.48 -0.293,1.054 -0.281,1.175 0.016,0.149 0.691,1.016 1.078,1.497 0.11,0.136 0.352,0.101 0.418,-0.055 l 0.266,-0.625 c 0.012,-0.031 0.015,-0.063 0.012,-0.094 l -0.278,-2.723 c -0.008,-0.066 0.028,-0.136 0.09,-0.179 l 0.211,-0.153 c 0.019,-0.015 0.035,-0.031 0.047,-0.05 l 0.773,-1.047 c 0.004,-0.008 0.008,-0.016 0.016,-0.024 l 0.93,-0.964 c 0.035,-0.032 0.05,-0.071 0.058,-0.114 l 0.238,-1.703 c 0.016,-0.129 0.161,-0.215 0.301,-0.183 l 0.324,0.074 c 0.122,0.027 0.196,0.133 0.168,0.238 l -0.535,2.18 c -0.011,0.043 -0.039,0.086 -0.078,0.117 -0.211,0.16 -0.91,0.738 -0.953,1.328 -0.039,0.516 0.258,1.672 0.41,2.23 0.043,0.145 0.242,0.2 0.379,0.106 0.508,-0.352 1.527,-1.055 1.699,-1.109 0.211,-0.071 2.153,-1.352 2.59,-1.645 0.059,-0.035 0.094,-0.094 0.098,-0.152 l 0.125,-1.512 c 0.004,-0.031 0.012,-0.059 0.027,-0.086 l 1.031,-1.648 c 0.028,-0.039 0.067,-0.075 0.114,-0.094 l 1.168,-0.469 c 0.156,-0.066 0.332,0.031 0.332,0.18 v 1.394 c 0,0.039 -0.012,0.078 -0.039,0.114 l -1.805,2.519 c -0.012,0.016 -0.02,0.031 -0.027,0.047 l -0.793,2.074 c -0.036,0.094 0.007,0.192 0.101,0.242 l 1.567,0.809 c 0.043,0.023 0.093,0.031 0.144,0.027 l 1.844,-0.187 c 0.105,-0.012 0.207,0.043 0.242,0.129 l 1.516,3.523 c 0.004,0.016 0.011,0.031 0.011,0.043" /></g></g></svg>