<?xml version="1.0" encoding="UTF-8" standalone="no"?>
<svg
   xmlns:dc="http://purl.org/dc/elements/1.1/"
   xmlns:cc="http://creativecommons.org/ns#"
   xmlns:rdf="http://www.w3.org/1999/02/22-rdf-syntax-ns#"
   xmlns:svg="http://www.w3.org/2000/svg"
   xmlns="http://www.w3.org/2000/svg"
   viewBox="0 0 2666.6667 2666.6667"
   height="2666.6667"
   width="2666.6667"
   xml:space="preserve"
   id="svg2"
   version="1.1"><metadata
     id="metadata8"><rdf:RDF><cc:Work
         rdf:about=""><dc:format>image/svg+xml</dc:format><dc:type
           rdf:resource="http://purl.org/dc/dcmitype/StillImage" /></cc:Work></rdf:RDF></metadata><defs
     id="defs6" /><g
     transform="matrix(1.3333333,0,0,-1.3333333,0,2666.6667)"
     id="g10"><g
       transform="scale(0.1)"
       id="g12"><path
         id="path14"
         style="fill:#211f1e;fill-opacity:1;fill-rule:nonzero;stroke:none"
         d="m 10000.4,12663.6 c -117.04,-0.9 -1124.48,-45.5 -1123.24,-1276.3 0.88,-999.2 441.72,-1645 1122.94,-1645 681.2,0 1121.9,645.8 1122.7,1645 0.6,533.8 -187.5,909.7 -558.6,1117.1 -273.2,152.6 -553.3,159 -563.8,159.2 z m -0.3,-3284.6 c -738.87,0 -1485.01,620.9 -1486.25,2008 -0.89,841.4 404.64,1244.4 744.89,1434.6 363.31,203 726.09,205.3 741.36,205.3 15.2,0 377.8,-2.3 741.3,-205.3 340.3,-190.2 745.6,-593.2 744.8,-1434.6 -1.3,-1387.1 -747.2,-2008 -1486.1,-2008" /><path
         id="path16"
         style="fill:#211f1e;fill-opacity:1;fill-rule:nonzero;stroke:none"
         d="m 10000.1,6268.5 c -789.26,0 -1471.53,101.1 -2028.21,300.5 -464.78,166.4 -788.53,590.1 -825.08,1079.1 -57.3,766.2 250.67,1033.7 519.07,1123.1 646.62,215.8 1262.01,747.8 1268.22,753.1 75.58,66 190.17,57.8 256.34,-17.6 65.82,-75.5 58.01,-190.3 -17.56,-256.3 -27.14,-23.6 -675.18,-584.7 -1392.04,-823.7 -264.5,-88.3 -293.77,-457.3 -271.78,-751.6 25.9,-346.1 255.63,-646.1 585.24,-764 355.68,-127.4 974.98,-279.3 1905.8,-279.3 930.6,0 1549.9,151.9 1905.6,279.3 329.6,117.9 559.3,417.9 585.2,764 22,294.3 -7.2,663.3 -271.7,751.6 -716.9,239 -1364.9,800.1 -1392.1,823.7 -75.6,66 -83.4,180.8 -17.5,256.3 65.9,75.4 180.4,83.6 256.3,17.6 6.2,-5.3 621.6,-537.3 1268.2,-753.1 268.4,-89.4 576.4,-356.9 519.1,-1123.1 -36.4,-489 -360.3,-912.7 -825.1,-1079.1 -556.7,-199.4 -1238.9,-300.5 -2028,-300.5" /><path
         id="path18"
         style="fill:#211f1e;fill-opacity:1;fill-rule:nonzero;stroke:none"
         d="m 6865.82,13368.2 c -117.09,-0.9 -1124.53,-45.6 -1123.29,-1276.4 0.89,-999.3 441.72,-1645 1122.93,-1645 681.21,0 1121.87,645.7 1122.93,1645 0.54,534 -187.51,909.9 -558.62,1117.3 -273.38,152.5 -553.49,158.9 -563.95,159.1 z m -0.36,-3284.7 c -738.86,0 -1485,620.9 -1486.24,2007.9 -0.89,841.4 404.64,1244.7 744.89,1434.7 363.32,203.1 726.1,205.4 741.35,205.4 15.26,0 378.04,-2.3 741.35,-205.4 340.25,-190 745.78,-593.3 744.89,-1434.7 -1.41,-1387 -747.55,-2007.9 -1486.24,-2007.9" /><path
         id="path20"
         style="fill:#211f1e;fill-opacity:1;fill-rule:nonzero;stroke:none"
         d="m 8576.11,9378.7 c -30.16,0 -60.84,7.4 -88.87,23.4 -449.35,252.9 -780.91,540.7 -794.75,552.9 -75.57,65.8 -83.38,180.6 -17.56,256.2 66.17,75.4 180.77,83.6 256.34,17.6 3.19,-2.9 318.78,-276.3 734.07,-510.2 87.46,-49.2 118.51,-160.1 69.19,-247.3 -33.35,-59.3 -94.91,-92.6 -158.42,-92.6" /><path
         id="path22"
         style="fill:#211f1e;fill-opacity:1;fill-rule:nonzero;stroke:none"
         d="m 6865.46,6973.1 c -789.42,0 -1471.87,101.2 -2028.19,300.4 -464.79,166.4 -788.54,590 -825.08,1079.1 -56.95,766.4 250.84,1033.9 519.06,1123.1 646.8,215.7 1262.02,747.7 1268.23,753.1 75.92,66 190.34,57.8 256.34,-17.6 65.81,-75.6 58.01,-190.4 -17.57,-256.2 -27.14,-23.7 -675,-584.9 -1392.04,-823.8 -264.15,-88.2 -293.6,-457.3 -271.77,-751.6 25.89,-346.1 255.63,-646.1 585.23,-764.1 355.51,-127.4 974.63,-279 1905.79,-279 100.41,0 181.66,-81.3 181.66,-181.7 0,-100.4 -81.25,-181.7 -181.66,-181.7" /><path
         id="path24"
         style="fill:#211f1e;fill-opacity:1;fill-rule:nonzero;stroke:none"
         d="m 13134.9,13368.2 c -117.1,-0.9 -1124.5,-45.6 -1123.3,-1276.4 1.1,-999.3 441.7,-1645 1122.9,-1645 681.2,0 1122.1,645.7 1123,1645 0.5,534 -187.5,909.9 -558.7,1117.3 -273.3,152.5 -553.4,158.9 -563.9,159.1 z m -0.4,-3284.7 c -738.6,0 -1484.8,620.9 -1486.2,2007.9 -0.9,841.4 404.6,1244.7 744.9,1434.7 363.3,203.1 726.1,205.4 741.3,205.4 15.3,0 378.1,-2.3 741.4,-205.4 340.2,-190 745.8,-593.3 744.9,-1434.7 -1.3,-1387 -747.4,-2007.9 -1486.3,-2007.9" /><path
         id="path26"
         style="fill:#211f1e;fill-opacity:1;fill-rule:nonzero;stroke:none"
         d="m 11423.9,9378.7 c -63.5,0 -125.1,33.3 -158.4,92.6 -49.3,87.2 -18.3,198.1 69.2,247.3 417,234.8 730.8,507.3 734,510 75.4,66.3 190.4,58.3 256.2,-17.4 66,-75.6 58.2,-190.4 -17.4,-256.2 -13.8,-12.2 -345.4,-300 -794.7,-552.9 -28.1,-16 -58.8,-23.4 -88.9,-23.4" /><path
         id="path28"
         style="fill:#211f1e;fill-opacity:1;fill-rule:nonzero;stroke:none"
         d="m 13134.5,6973.1 c -100.4,0 -181.6,81.3 -181.6,181.7 0,100.4 81.2,181.7 181.6,181.7 931.2,0 1550.3,151.6 1905.8,279 329.6,118 559.4,418 585.3,764.1 21.8,294.3 -7.7,663.4 -271.8,751.6 -717.1,238.9 -1364.9,800.1 -1392.1,823.8 -75.5,65.8 -83.3,180.6 -17.5,256.2 66,75.4 180.6,83.6 256.3,17.6 6.2,-5.4 621.5,-537.4 1268.2,-753.1 268.3,-89.2 576.1,-356.7 519.1,-1123.1 -36.5,-489.1 -360.3,-912.7 -825.1,-1079.1 -556.3,-199.2 -1238.7,-300.4 -2028.2,-300.4" /></g></g></svg>